G04 #@! TF.GenerationSoftware,KiCad,Pcbnew,9.0.7*
G04 #@! TF.CreationDate,2026-02-20T16:37:27+01:00*
G04 #@! TF.ProjectId,nice_pillz,6e696365-5f70-4696-9c6c-7a2e6b696361,rev?*
G04 #@! TF.SameCoordinates,Original*
G04 #@! TF.FileFunction,Legend,Top*
G04 #@! TF.FilePolarity,Positive*
%FSLAX46Y46*%
G04 Gerber Fmt 4.6, Leading zero omitted, Abs format (unit mm)*
G04 Created by KiCad (PCBNEW 9.0.7) date 2026-02-20 16:37:27*
%MOMM*%
%LPD*%
G01*
G04 APERTURE LIST*
G04 Aperture macros list*
%AMRoundRect*
0 Rectangle with rounded corners*
0 $1 Rounding radius*
0 $2 $3 $4 $5 $6 $7 $8 $9 X,Y pos of 4 corners*
0 Add a 4 corners polygon primitive as box body*
4,1,4,$2,$3,$4,$5,$6,$7,$8,$9,$2,$3,0*
0 Add four circle primitives for the rounded corners*
1,1,$1+$1,$2,$3*
1,1,$1+$1,$4,$5*
1,1,$1+$1,$6,$7*
1,1,$1+$1,$8,$9*
0 Add four rect primitives between the rounded corners*
20,1,$1+$1,$2,$3,$4,$5,0*
20,1,$1+$1,$4,$5,$6,$7,0*
20,1,$1+$1,$6,$7,$8,$9,0*
20,1,$1+$1,$8,$9,$2,$3,0*%
G04 Aperture macros list end*
%ADD10C,0.200000*%
%ADD11C,0.300000*%
%ADD12C,0.150000*%
%ADD13C,0.120000*%
%ADD14C,0.000000*%
%ADD15C,0.381000*%
%ADD16C,1.752600*%
%ADD17R,1.752600X1.752600*%
%ADD18C,2.000000*%
%ADD19R,1.800000X1.800000*%
%ADD20C,1.800000*%
%ADD21C,8.600000*%
%ADD22O,2.000000X1.200000*%
%ADD23C,1.511200*%
%ADD24R,1.700000X1.700000*%
%ADD25O,1.700000X1.700000*%
%ADD26C,6.500000*%
%ADD27O,4.750000X2.250000*%
%ADD28R,1.200000X1.500000*%
%ADD29C,1.600000*%
%ADD30C,1.638200*%
%ADD31RoundRect,0.250000X0.750000X0.750000X-0.750000X0.750000X-0.750000X-0.750000X0.750000X-0.750000X0*%
%ADD32R,1.600000X1.600000*%
%ADD33O,1.600000X1.600000*%
G04 APERTURE END LIST*
D10*
X158869673Y-95537303D02*
X158869673Y-94537303D01*
X158869673Y-94537303D02*
X159441101Y-95537303D01*
X159441101Y-95537303D02*
X159441101Y-94537303D01*
X159917292Y-95537303D02*
X159917292Y-94870636D01*
X159917292Y-94537303D02*
X159869673Y-94584922D01*
X159869673Y-94584922D02*
X159917292Y-94632541D01*
X159917292Y-94632541D02*
X159964911Y-94584922D01*
X159964911Y-94584922D02*
X159917292Y-94537303D01*
X159917292Y-94537303D02*
X159917292Y-94632541D01*
X160822053Y-95489684D02*
X160726815Y-95537303D01*
X160726815Y-95537303D02*
X160536339Y-95537303D01*
X160536339Y-95537303D02*
X160441101Y-95489684D01*
X160441101Y-95489684D02*
X160393482Y-95442064D01*
X160393482Y-95442064D02*
X160345863Y-95346826D01*
X160345863Y-95346826D02*
X160345863Y-95061112D01*
X160345863Y-95061112D02*
X160393482Y-94965874D01*
X160393482Y-94965874D02*
X160441101Y-94918255D01*
X160441101Y-94918255D02*
X160536339Y-94870636D01*
X160536339Y-94870636D02*
X160726815Y-94870636D01*
X160726815Y-94870636D02*
X160822053Y-94918255D01*
X161631577Y-95489684D02*
X161536339Y-95537303D01*
X161536339Y-95537303D02*
X161345863Y-95537303D01*
X161345863Y-95537303D02*
X161250625Y-95489684D01*
X161250625Y-95489684D02*
X161203006Y-95394445D01*
X161203006Y-95394445D02*
X161203006Y-95013493D01*
X161203006Y-95013493D02*
X161250625Y-94918255D01*
X161250625Y-94918255D02*
X161345863Y-94870636D01*
X161345863Y-94870636D02*
X161536339Y-94870636D01*
X161536339Y-94870636D02*
X161631577Y-94918255D01*
X161631577Y-94918255D02*
X161679196Y-95013493D01*
X161679196Y-95013493D02*
X161679196Y-95108731D01*
X161679196Y-95108731D02*
X161203006Y-95203969D01*
X162869673Y-95537303D02*
X162869673Y-94537303D01*
X162869673Y-94537303D02*
X163250625Y-94537303D01*
X163250625Y-94537303D02*
X163345863Y-94584922D01*
X163345863Y-94584922D02*
X163393482Y-94632541D01*
X163393482Y-94632541D02*
X163441101Y-94727779D01*
X163441101Y-94727779D02*
X163441101Y-94870636D01*
X163441101Y-94870636D02*
X163393482Y-94965874D01*
X163393482Y-94965874D02*
X163345863Y-95013493D01*
X163345863Y-95013493D02*
X163250625Y-95061112D01*
X163250625Y-95061112D02*
X162869673Y-95061112D01*
X163869673Y-95537303D02*
X163869673Y-94870636D01*
X163869673Y-94537303D02*
X163822054Y-94584922D01*
X163822054Y-94584922D02*
X163869673Y-94632541D01*
X163869673Y-94632541D02*
X163917292Y-94584922D01*
X163917292Y-94584922D02*
X163869673Y-94537303D01*
X163869673Y-94537303D02*
X163869673Y-94632541D01*
X164488720Y-95537303D02*
X164393482Y-95489684D01*
X164393482Y-95489684D02*
X164345863Y-95394445D01*
X164345863Y-95394445D02*
X164345863Y-94537303D01*
X165012530Y-95537303D02*
X164917292Y-95489684D01*
X164917292Y-95489684D02*
X164869673Y-95394445D01*
X164869673Y-95394445D02*
X164869673Y-94537303D01*
X165298245Y-94870636D02*
X165822054Y-94870636D01*
X165822054Y-94870636D02*
X165298245Y-95537303D01*
X165298245Y-95537303D02*
X165822054Y-95537303D01*
X159298244Y-96480580D02*
X159298244Y-97290104D01*
X159298244Y-97290104D02*
X159250625Y-97385342D01*
X159250625Y-97385342D02*
X159203006Y-97432961D01*
X159203006Y-97432961D02*
X159107768Y-97480580D01*
X159107768Y-97480580D02*
X158964911Y-97480580D01*
X158964911Y-97480580D02*
X158869673Y-97432961D01*
X159298244Y-97099628D02*
X159203006Y-97147247D01*
X159203006Y-97147247D02*
X159012530Y-97147247D01*
X159012530Y-97147247D02*
X158917292Y-97099628D01*
X158917292Y-97099628D02*
X158869673Y-97052008D01*
X158869673Y-97052008D02*
X158822054Y-96956770D01*
X158822054Y-96956770D02*
X158822054Y-96671056D01*
X158822054Y-96671056D02*
X158869673Y-96575818D01*
X158869673Y-96575818D02*
X158917292Y-96528199D01*
X158917292Y-96528199D02*
X159012530Y-96480580D01*
X159012530Y-96480580D02*
X159203006Y-96480580D01*
X159203006Y-96480580D02*
X159298244Y-96528199D01*
X159774435Y-97147247D02*
X159774435Y-96480580D01*
X159774435Y-96147247D02*
X159726816Y-96194866D01*
X159726816Y-96194866D02*
X159774435Y-96242485D01*
X159774435Y-96242485D02*
X159822054Y-96194866D01*
X159822054Y-96194866D02*
X159774435Y-96147247D01*
X159774435Y-96147247D02*
X159774435Y-96242485D01*
X160107768Y-96480580D02*
X160488720Y-96480580D01*
X160250625Y-96147247D02*
X160250625Y-97004389D01*
X160250625Y-97004389D02*
X160298244Y-97099628D01*
X160298244Y-97099628D02*
X160393482Y-97147247D01*
X160393482Y-97147247D02*
X160488720Y-97147247D01*
X160822054Y-97147247D02*
X160822054Y-96147247D01*
X161250625Y-97147247D02*
X161250625Y-96623437D01*
X161250625Y-96623437D02*
X161203006Y-96528199D01*
X161203006Y-96528199D02*
X161107768Y-96480580D01*
X161107768Y-96480580D02*
X160964911Y-96480580D01*
X160964911Y-96480580D02*
X160869673Y-96528199D01*
X160869673Y-96528199D02*
X160822054Y-96575818D01*
X162155387Y-96480580D02*
X162155387Y-97147247D01*
X161726816Y-96480580D02*
X161726816Y-97004389D01*
X161726816Y-97004389D02*
X161774435Y-97099628D01*
X161774435Y-97099628D02*
X161869673Y-97147247D01*
X161869673Y-97147247D02*
X162012530Y-97147247D01*
X162012530Y-97147247D02*
X162107768Y-97099628D01*
X162107768Y-97099628D02*
X162155387Y-97052008D01*
X162631578Y-97147247D02*
X162631578Y-96147247D01*
X162631578Y-96528199D02*
X162726816Y-96480580D01*
X162726816Y-96480580D02*
X162917292Y-96480580D01*
X162917292Y-96480580D02*
X163012530Y-96528199D01*
X163012530Y-96528199D02*
X163060149Y-96575818D01*
X163060149Y-96575818D02*
X163107768Y-96671056D01*
X163107768Y-96671056D02*
X163107768Y-96956770D01*
X163107768Y-96956770D02*
X163060149Y-97052008D01*
X163060149Y-97052008D02*
X163012530Y-97099628D01*
X163012530Y-97099628D02*
X162917292Y-97147247D01*
X162917292Y-97147247D02*
X162726816Y-97147247D01*
X162726816Y-97147247D02*
X162631578Y-97099628D01*
X163536340Y-97052008D02*
X163583959Y-97099628D01*
X163583959Y-97099628D02*
X163536340Y-97147247D01*
X163536340Y-97147247D02*
X163488721Y-97099628D01*
X163488721Y-97099628D02*
X163536340Y-97052008D01*
X163536340Y-97052008D02*
X163536340Y-97147247D01*
X164441101Y-97099628D02*
X164345863Y-97147247D01*
X164345863Y-97147247D02*
X164155387Y-97147247D01*
X164155387Y-97147247D02*
X164060149Y-97099628D01*
X164060149Y-97099628D02*
X164012530Y-97052008D01*
X164012530Y-97052008D02*
X163964911Y-96956770D01*
X163964911Y-96956770D02*
X163964911Y-96671056D01*
X163964911Y-96671056D02*
X164012530Y-96575818D01*
X164012530Y-96575818D02*
X164060149Y-96528199D01*
X164060149Y-96528199D02*
X164155387Y-96480580D01*
X164155387Y-96480580D02*
X164345863Y-96480580D01*
X164345863Y-96480580D02*
X164441101Y-96528199D01*
X165012530Y-97147247D02*
X164917292Y-97099628D01*
X164917292Y-97099628D02*
X164869673Y-97052008D01*
X164869673Y-97052008D02*
X164822054Y-96956770D01*
X164822054Y-96956770D02*
X164822054Y-96671056D01*
X164822054Y-96671056D02*
X164869673Y-96575818D01*
X164869673Y-96575818D02*
X164917292Y-96528199D01*
X164917292Y-96528199D02*
X165012530Y-96480580D01*
X165012530Y-96480580D02*
X165155387Y-96480580D01*
X165155387Y-96480580D02*
X165250625Y-96528199D01*
X165250625Y-96528199D02*
X165298244Y-96575818D01*
X165298244Y-96575818D02*
X165345863Y-96671056D01*
X165345863Y-96671056D02*
X165345863Y-96956770D01*
X165345863Y-96956770D02*
X165298244Y-97052008D01*
X165298244Y-97052008D02*
X165250625Y-97099628D01*
X165250625Y-97099628D02*
X165155387Y-97147247D01*
X165155387Y-97147247D02*
X165012530Y-97147247D01*
X165774435Y-97147247D02*
X165774435Y-96480580D01*
X165774435Y-96575818D02*
X165822054Y-96528199D01*
X165822054Y-96528199D02*
X165917292Y-96480580D01*
X165917292Y-96480580D02*
X166060149Y-96480580D01*
X166060149Y-96480580D02*
X166155387Y-96528199D01*
X166155387Y-96528199D02*
X166203006Y-96623437D01*
X166203006Y-96623437D02*
X166203006Y-97147247D01*
X166203006Y-96623437D02*
X166250625Y-96528199D01*
X166250625Y-96528199D02*
X166345863Y-96480580D01*
X166345863Y-96480580D02*
X166488720Y-96480580D01*
X166488720Y-96480580D02*
X166583959Y-96528199D01*
X166583959Y-96528199D02*
X166631578Y-96623437D01*
X166631578Y-96623437D02*
X166631578Y-97147247D01*
X167822053Y-96099628D02*
X166964911Y-97385342D01*
X168155387Y-96480580D02*
X168155387Y-97147247D01*
X168155387Y-96575818D02*
X168203006Y-96528199D01*
X168203006Y-96528199D02*
X168298244Y-96480580D01*
X168298244Y-96480580D02*
X168441101Y-96480580D01*
X168441101Y-96480580D02*
X168536339Y-96528199D01*
X168536339Y-96528199D02*
X168583958Y-96623437D01*
X168583958Y-96623437D02*
X168583958Y-97147247D01*
X169203006Y-97147247D02*
X169107768Y-97099628D01*
X169107768Y-97099628D02*
X169060149Y-97052008D01*
X169060149Y-97052008D02*
X169012530Y-96956770D01*
X169012530Y-96956770D02*
X169012530Y-96671056D01*
X169012530Y-96671056D02*
X169060149Y-96575818D01*
X169060149Y-96575818D02*
X169107768Y-96528199D01*
X169107768Y-96528199D02*
X169203006Y-96480580D01*
X169203006Y-96480580D02*
X169345863Y-96480580D01*
X169345863Y-96480580D02*
X169441101Y-96528199D01*
X169441101Y-96528199D02*
X169488720Y-96575818D01*
X169488720Y-96575818D02*
X169536339Y-96671056D01*
X169536339Y-96671056D02*
X169536339Y-96956770D01*
X169536339Y-96956770D02*
X169488720Y-97052008D01*
X169488720Y-97052008D02*
X169441101Y-97099628D01*
X169441101Y-97099628D02*
X169345863Y-97147247D01*
X169345863Y-97147247D02*
X169203006Y-97147247D01*
X170107768Y-97147247D02*
X170012530Y-97099628D01*
X170012530Y-97099628D02*
X169964911Y-97004389D01*
X169964911Y-97004389D02*
X169964911Y-96147247D01*
X170679197Y-96147247D02*
X170774435Y-96147247D01*
X170774435Y-96147247D02*
X170869673Y-96194866D01*
X170869673Y-96194866D02*
X170917292Y-96242485D01*
X170917292Y-96242485D02*
X170964911Y-96337723D01*
X170964911Y-96337723D02*
X171012530Y-96528199D01*
X171012530Y-96528199D02*
X171012530Y-96766294D01*
X171012530Y-96766294D02*
X170964911Y-96956770D01*
X170964911Y-96956770D02*
X170917292Y-97052008D01*
X170917292Y-97052008D02*
X170869673Y-97099628D01*
X170869673Y-97099628D02*
X170774435Y-97147247D01*
X170774435Y-97147247D02*
X170679197Y-97147247D01*
X170679197Y-97147247D02*
X170583959Y-97099628D01*
X170583959Y-97099628D02*
X170536340Y-97052008D01*
X170536340Y-97052008D02*
X170488721Y-96956770D01*
X170488721Y-96956770D02*
X170441102Y-96766294D01*
X170441102Y-96766294D02*
X170441102Y-96528199D01*
X170441102Y-96528199D02*
X170488721Y-96337723D01*
X170488721Y-96337723D02*
X170536340Y-96242485D01*
X170536340Y-96242485D02*
X170583959Y-96194866D01*
X170583959Y-96194866D02*
X170679197Y-96147247D01*
X171631578Y-96147247D02*
X171726816Y-96147247D01*
X171726816Y-96147247D02*
X171822054Y-96194866D01*
X171822054Y-96194866D02*
X171869673Y-96242485D01*
X171869673Y-96242485D02*
X171917292Y-96337723D01*
X171917292Y-96337723D02*
X171964911Y-96528199D01*
X171964911Y-96528199D02*
X171964911Y-96766294D01*
X171964911Y-96766294D02*
X171917292Y-96956770D01*
X171917292Y-96956770D02*
X171869673Y-97052008D01*
X171869673Y-97052008D02*
X171822054Y-97099628D01*
X171822054Y-97099628D02*
X171726816Y-97147247D01*
X171726816Y-97147247D02*
X171631578Y-97147247D01*
X171631578Y-97147247D02*
X171536340Y-97099628D01*
X171536340Y-97099628D02*
X171488721Y-97052008D01*
X171488721Y-97052008D02*
X171441102Y-96956770D01*
X171441102Y-96956770D02*
X171393483Y-96766294D01*
X171393483Y-96766294D02*
X171393483Y-96528199D01*
X171393483Y-96528199D02*
X171441102Y-96337723D01*
X171441102Y-96337723D02*
X171488721Y-96242485D01*
X171488721Y-96242485D02*
X171536340Y-96194866D01*
X171536340Y-96194866D02*
X171631578Y-96147247D01*
X172393483Y-96480580D02*
X172393483Y-97480580D01*
X172393483Y-96528199D02*
X172488721Y-96480580D01*
X172488721Y-96480580D02*
X172679197Y-96480580D01*
X172679197Y-96480580D02*
X172774435Y-96528199D01*
X172774435Y-96528199D02*
X172822054Y-96575818D01*
X172822054Y-96575818D02*
X172869673Y-96671056D01*
X172869673Y-96671056D02*
X172869673Y-96956770D01*
X172869673Y-96956770D02*
X172822054Y-97052008D01*
X172822054Y-97052008D02*
X172774435Y-97099628D01*
X172774435Y-97099628D02*
X172679197Y-97147247D01*
X172679197Y-97147247D02*
X172488721Y-97147247D01*
X172488721Y-97147247D02*
X172393483Y-97099628D01*
X174012530Y-96099628D02*
X173155388Y-97385342D01*
X174345864Y-96480580D02*
X174345864Y-97147247D01*
X174345864Y-96575818D02*
X174393483Y-96528199D01*
X174393483Y-96528199D02*
X174488721Y-96480580D01*
X174488721Y-96480580D02*
X174631578Y-96480580D01*
X174631578Y-96480580D02*
X174726816Y-96528199D01*
X174726816Y-96528199D02*
X174774435Y-96623437D01*
X174774435Y-96623437D02*
X174774435Y-97147247D01*
X175250626Y-97147247D02*
X175250626Y-96480580D01*
X175250626Y-96147247D02*
X175203007Y-96194866D01*
X175203007Y-96194866D02*
X175250626Y-96242485D01*
X175250626Y-96242485D02*
X175298245Y-96194866D01*
X175298245Y-96194866D02*
X175250626Y-96147247D01*
X175250626Y-96147247D02*
X175250626Y-96242485D01*
X176155387Y-97099628D02*
X176060149Y-97147247D01*
X176060149Y-97147247D02*
X175869673Y-97147247D01*
X175869673Y-97147247D02*
X175774435Y-97099628D01*
X175774435Y-97099628D02*
X175726816Y-97052008D01*
X175726816Y-97052008D02*
X175679197Y-96956770D01*
X175679197Y-96956770D02*
X175679197Y-96671056D01*
X175679197Y-96671056D02*
X175726816Y-96575818D01*
X175726816Y-96575818D02*
X175774435Y-96528199D01*
X175774435Y-96528199D02*
X175869673Y-96480580D01*
X175869673Y-96480580D02*
X176060149Y-96480580D01*
X176060149Y-96480580D02*
X176155387Y-96528199D01*
X176964911Y-97099628D02*
X176869673Y-97147247D01*
X176869673Y-97147247D02*
X176679197Y-97147247D01*
X176679197Y-97147247D02*
X176583959Y-97099628D01*
X176583959Y-97099628D02*
X176536340Y-97004389D01*
X176536340Y-97004389D02*
X176536340Y-96623437D01*
X176536340Y-96623437D02*
X176583959Y-96528199D01*
X176583959Y-96528199D02*
X176679197Y-96480580D01*
X176679197Y-96480580D02*
X176869673Y-96480580D01*
X176869673Y-96480580D02*
X176964911Y-96528199D01*
X176964911Y-96528199D02*
X177012530Y-96623437D01*
X177012530Y-96623437D02*
X177012530Y-96718675D01*
X177012530Y-96718675D02*
X176536340Y-96813913D01*
X177441102Y-96480580D02*
X177441102Y-97480580D01*
X177441102Y-96528199D02*
X177536340Y-96480580D01*
X177536340Y-96480580D02*
X177726816Y-96480580D01*
X177726816Y-96480580D02*
X177822054Y-96528199D01*
X177822054Y-96528199D02*
X177869673Y-96575818D01*
X177869673Y-96575818D02*
X177917292Y-96671056D01*
X177917292Y-96671056D02*
X177917292Y-96956770D01*
X177917292Y-96956770D02*
X177869673Y-97052008D01*
X177869673Y-97052008D02*
X177822054Y-97099628D01*
X177822054Y-97099628D02*
X177726816Y-97147247D01*
X177726816Y-97147247D02*
X177536340Y-97147247D01*
X177536340Y-97147247D02*
X177441102Y-97099628D01*
X178345864Y-97147247D02*
X178345864Y-96480580D01*
X178345864Y-96147247D02*
X178298245Y-96194866D01*
X178298245Y-96194866D02*
X178345864Y-96242485D01*
X178345864Y-96242485D02*
X178393483Y-96194866D01*
X178393483Y-96194866D02*
X178345864Y-96147247D01*
X178345864Y-96147247D02*
X178345864Y-96242485D01*
X178964911Y-97147247D02*
X178869673Y-97099628D01*
X178869673Y-97099628D02*
X178822054Y-97004389D01*
X178822054Y-97004389D02*
X178822054Y-96147247D01*
X179488721Y-97147247D02*
X179393483Y-97099628D01*
X179393483Y-97099628D02*
X179345864Y-97004389D01*
X179345864Y-97004389D02*
X179345864Y-96147247D01*
X179774436Y-96480580D02*
X180298245Y-96480580D01*
X180298245Y-96480580D02*
X179774436Y-97147247D01*
X179774436Y-97147247D02*
X180298245Y-97147247D01*
X158774435Y-98090524D02*
X159012530Y-98757191D01*
X159012530Y-98757191D02*
X159250625Y-98090524D01*
X160155387Y-98757191D02*
X159583959Y-98757191D01*
X159869673Y-98757191D02*
X159869673Y-97757191D01*
X159869673Y-97757191D02*
X159774435Y-97900048D01*
X159774435Y-97900048D02*
X159679197Y-97995286D01*
X159679197Y-97995286D02*
X159583959Y-98042905D01*
X160583959Y-98661952D02*
X160631578Y-98709572D01*
X160631578Y-98709572D02*
X160583959Y-98757191D01*
X160583959Y-98757191D02*
X160536340Y-98709572D01*
X160536340Y-98709572D02*
X160583959Y-98661952D01*
X160583959Y-98661952D02*
X160583959Y-98757191D01*
X161250625Y-97757191D02*
X161345863Y-97757191D01*
X161345863Y-97757191D02*
X161441101Y-97804810D01*
X161441101Y-97804810D02*
X161488720Y-97852429D01*
X161488720Y-97852429D02*
X161536339Y-97947667D01*
X161536339Y-97947667D02*
X161583958Y-98138143D01*
X161583958Y-98138143D02*
X161583958Y-98376238D01*
X161583958Y-98376238D02*
X161536339Y-98566714D01*
X161536339Y-98566714D02*
X161488720Y-98661952D01*
X161488720Y-98661952D02*
X161441101Y-98709572D01*
X161441101Y-98709572D02*
X161345863Y-98757191D01*
X161345863Y-98757191D02*
X161250625Y-98757191D01*
X161250625Y-98757191D02*
X161155387Y-98709572D01*
X161155387Y-98709572D02*
X161107768Y-98661952D01*
X161107768Y-98661952D02*
X161060149Y-98566714D01*
X161060149Y-98566714D02*
X161012530Y-98376238D01*
X161012530Y-98376238D02*
X161012530Y-98138143D01*
X161012530Y-98138143D02*
X161060149Y-97947667D01*
X161060149Y-97947667D02*
X161107768Y-97852429D01*
X161107768Y-97852429D02*
X161155387Y-97804810D01*
X161155387Y-97804810D02*
X161250625Y-97757191D01*
X159203006Y-99843325D02*
X158869673Y-99843325D01*
X158869673Y-100367135D02*
X158869673Y-99367135D01*
X158869673Y-99367135D02*
X159345863Y-99367135D01*
X160107768Y-100319516D02*
X160012530Y-100367135D01*
X160012530Y-100367135D02*
X159822054Y-100367135D01*
X159822054Y-100367135D02*
X159726816Y-100319516D01*
X159726816Y-100319516D02*
X159679197Y-100224277D01*
X159679197Y-100224277D02*
X159679197Y-99843325D01*
X159679197Y-99843325D02*
X159726816Y-99748087D01*
X159726816Y-99748087D02*
X159822054Y-99700468D01*
X159822054Y-99700468D02*
X160012530Y-99700468D01*
X160012530Y-99700468D02*
X160107768Y-99748087D01*
X160107768Y-99748087D02*
X160155387Y-99843325D01*
X160155387Y-99843325D02*
X160155387Y-99938563D01*
X160155387Y-99938563D02*
X159679197Y-100033801D01*
X160583959Y-100367135D02*
X160583959Y-99367135D01*
X160583959Y-99748087D02*
X160679197Y-99700468D01*
X160679197Y-99700468D02*
X160869673Y-99700468D01*
X160869673Y-99700468D02*
X160964911Y-99748087D01*
X160964911Y-99748087D02*
X161012530Y-99795706D01*
X161012530Y-99795706D02*
X161060149Y-99890944D01*
X161060149Y-99890944D02*
X161060149Y-100176658D01*
X161060149Y-100176658D02*
X161012530Y-100271896D01*
X161012530Y-100271896D02*
X160964911Y-100319516D01*
X160964911Y-100319516D02*
X160869673Y-100367135D01*
X160869673Y-100367135D02*
X160679197Y-100367135D01*
X160679197Y-100367135D02*
X160583959Y-100319516D01*
X162203007Y-99462373D02*
X162250626Y-99414754D01*
X162250626Y-99414754D02*
X162345864Y-99367135D01*
X162345864Y-99367135D02*
X162583959Y-99367135D01*
X162583959Y-99367135D02*
X162679197Y-99414754D01*
X162679197Y-99414754D02*
X162726816Y-99462373D01*
X162726816Y-99462373D02*
X162774435Y-99557611D01*
X162774435Y-99557611D02*
X162774435Y-99652849D01*
X162774435Y-99652849D02*
X162726816Y-99795706D01*
X162726816Y-99795706D02*
X162155388Y-100367135D01*
X162155388Y-100367135D02*
X162774435Y-100367135D01*
X163631578Y-99367135D02*
X163441102Y-99367135D01*
X163441102Y-99367135D02*
X163345864Y-99414754D01*
X163345864Y-99414754D02*
X163298245Y-99462373D01*
X163298245Y-99462373D02*
X163203007Y-99605230D01*
X163203007Y-99605230D02*
X163155388Y-99795706D01*
X163155388Y-99795706D02*
X163155388Y-100176658D01*
X163155388Y-100176658D02*
X163203007Y-100271896D01*
X163203007Y-100271896D02*
X163250626Y-100319516D01*
X163250626Y-100319516D02*
X163345864Y-100367135D01*
X163345864Y-100367135D02*
X163536340Y-100367135D01*
X163536340Y-100367135D02*
X163631578Y-100319516D01*
X163631578Y-100319516D02*
X163679197Y-100271896D01*
X163679197Y-100271896D02*
X163726816Y-100176658D01*
X163726816Y-100176658D02*
X163726816Y-99938563D01*
X163726816Y-99938563D02*
X163679197Y-99843325D01*
X163679197Y-99843325D02*
X163631578Y-99795706D01*
X163631578Y-99795706D02*
X163536340Y-99748087D01*
X163536340Y-99748087D02*
X163345864Y-99748087D01*
X163345864Y-99748087D02*
X163250626Y-99795706D01*
X163250626Y-99795706D02*
X163203007Y-99843325D01*
X163203007Y-99843325D02*
X163155388Y-99938563D01*
D11*
X131124000Y-118899471D02*
X131052572Y-118970900D01*
X131052572Y-118970900D02*
X130838286Y-119042328D01*
X130838286Y-119042328D02*
X130695429Y-119042328D01*
X130695429Y-119042328D02*
X130481143Y-118970900D01*
X130481143Y-118970900D02*
X130338286Y-118828042D01*
X130338286Y-118828042D02*
X130266857Y-118685185D01*
X130266857Y-118685185D02*
X130195429Y-118399471D01*
X130195429Y-118399471D02*
X130195429Y-118185185D01*
X130195429Y-118185185D02*
X130266857Y-117899471D01*
X130266857Y-117899471D02*
X130338286Y-117756614D01*
X130338286Y-117756614D02*
X130481143Y-117613757D01*
X130481143Y-117613757D02*
X130695429Y-117542328D01*
X130695429Y-117542328D02*
X130838286Y-117542328D01*
X130838286Y-117542328D02*
X131052572Y-117613757D01*
X131052572Y-117613757D02*
X131124000Y-117685185D01*
X131695429Y-118613757D02*
X132409715Y-118613757D01*
X131552572Y-119042328D02*
X132052572Y-117542328D01*
X132052572Y-117542328D02*
X132552572Y-119042328D01*
X133052571Y-119042328D02*
X133052571Y-117542328D01*
X133052571Y-117542328D02*
X133624000Y-117542328D01*
X133624000Y-117542328D02*
X133766857Y-117613757D01*
X133766857Y-117613757D02*
X133838286Y-117685185D01*
X133838286Y-117685185D02*
X133909714Y-117828042D01*
X133909714Y-117828042D02*
X133909714Y-118042328D01*
X133909714Y-118042328D02*
X133838286Y-118185185D01*
X133838286Y-118185185D02*
X133766857Y-118256614D01*
X133766857Y-118256614D02*
X133624000Y-118328042D01*
X133624000Y-118328042D02*
X133052571Y-118328042D01*
X134481143Y-118970900D02*
X134695429Y-119042328D01*
X134695429Y-119042328D02*
X135052571Y-119042328D01*
X135052571Y-119042328D02*
X135195429Y-118970900D01*
X135195429Y-118970900D02*
X135266857Y-118899471D01*
X135266857Y-118899471D02*
X135338286Y-118756614D01*
X135338286Y-118756614D02*
X135338286Y-118613757D01*
X135338286Y-118613757D02*
X135266857Y-118470900D01*
X135266857Y-118470900D02*
X135195429Y-118399471D01*
X135195429Y-118399471D02*
X135052571Y-118328042D01*
X135052571Y-118328042D02*
X134766857Y-118256614D01*
X134766857Y-118256614D02*
X134624000Y-118185185D01*
X134624000Y-118185185D02*
X134552571Y-118113757D01*
X134552571Y-118113757D02*
X134481143Y-117970900D01*
X134481143Y-117970900D02*
X134481143Y-117828042D01*
X134481143Y-117828042D02*
X134552571Y-117685185D01*
X134552571Y-117685185D02*
X134624000Y-117613757D01*
X134624000Y-117613757D02*
X134766857Y-117542328D01*
X134766857Y-117542328D02*
X135124000Y-117542328D01*
X135124000Y-117542328D02*
X135338286Y-117613757D01*
X136695428Y-119042328D02*
X135981142Y-119042328D01*
X135981142Y-119042328D02*
X135981142Y-117542328D01*
X138052571Y-118899471D02*
X137981143Y-118970900D01*
X137981143Y-118970900D02*
X137766857Y-119042328D01*
X137766857Y-119042328D02*
X137624000Y-119042328D01*
X137624000Y-119042328D02*
X137409714Y-118970900D01*
X137409714Y-118970900D02*
X137266857Y-118828042D01*
X137266857Y-118828042D02*
X137195428Y-118685185D01*
X137195428Y-118685185D02*
X137124000Y-118399471D01*
X137124000Y-118399471D02*
X137124000Y-118185185D01*
X137124000Y-118185185D02*
X137195428Y-117899471D01*
X137195428Y-117899471D02*
X137266857Y-117756614D01*
X137266857Y-117756614D02*
X137409714Y-117613757D01*
X137409714Y-117613757D02*
X137624000Y-117542328D01*
X137624000Y-117542328D02*
X137766857Y-117542328D01*
X137766857Y-117542328D02*
X137981143Y-117613757D01*
X137981143Y-117613757D02*
X138052571Y-117685185D01*
X138695428Y-119042328D02*
X138695428Y-117542328D01*
X139552571Y-119042328D02*
X138909714Y-118185185D01*
X139552571Y-117542328D02*
X138695428Y-118399471D01*
X151031286Y-118843900D02*
X151245572Y-118915328D01*
X151245572Y-118915328D02*
X151602714Y-118915328D01*
X151602714Y-118915328D02*
X151745572Y-118843900D01*
X151745572Y-118843900D02*
X151817000Y-118772471D01*
X151817000Y-118772471D02*
X151888429Y-118629614D01*
X151888429Y-118629614D02*
X151888429Y-118486757D01*
X151888429Y-118486757D02*
X151817000Y-118343900D01*
X151817000Y-118343900D02*
X151745572Y-118272471D01*
X151745572Y-118272471D02*
X151602714Y-118201042D01*
X151602714Y-118201042D02*
X151317000Y-118129614D01*
X151317000Y-118129614D02*
X151174143Y-118058185D01*
X151174143Y-118058185D02*
X151102714Y-117986757D01*
X151102714Y-117986757D02*
X151031286Y-117843900D01*
X151031286Y-117843900D02*
X151031286Y-117701042D01*
X151031286Y-117701042D02*
X151102714Y-117558185D01*
X151102714Y-117558185D02*
X151174143Y-117486757D01*
X151174143Y-117486757D02*
X151317000Y-117415328D01*
X151317000Y-117415328D02*
X151674143Y-117415328D01*
X151674143Y-117415328D02*
X151888429Y-117486757D01*
X153388428Y-118772471D02*
X153317000Y-118843900D01*
X153317000Y-118843900D02*
X153102714Y-118915328D01*
X153102714Y-118915328D02*
X152959857Y-118915328D01*
X152959857Y-118915328D02*
X152745571Y-118843900D01*
X152745571Y-118843900D02*
X152602714Y-118701042D01*
X152602714Y-118701042D02*
X152531285Y-118558185D01*
X152531285Y-118558185D02*
X152459857Y-118272471D01*
X152459857Y-118272471D02*
X152459857Y-118058185D01*
X152459857Y-118058185D02*
X152531285Y-117772471D01*
X152531285Y-117772471D02*
X152602714Y-117629614D01*
X152602714Y-117629614D02*
X152745571Y-117486757D01*
X152745571Y-117486757D02*
X152959857Y-117415328D01*
X152959857Y-117415328D02*
X153102714Y-117415328D01*
X153102714Y-117415328D02*
X153317000Y-117486757D01*
X153317000Y-117486757D02*
X153388428Y-117558185D01*
X154888428Y-118915328D02*
X154388428Y-118201042D01*
X154031285Y-118915328D02*
X154031285Y-117415328D01*
X154031285Y-117415328D02*
X154602714Y-117415328D01*
X154602714Y-117415328D02*
X154745571Y-117486757D01*
X154745571Y-117486757D02*
X154817000Y-117558185D01*
X154817000Y-117558185D02*
X154888428Y-117701042D01*
X154888428Y-117701042D02*
X154888428Y-117915328D01*
X154888428Y-117915328D02*
X154817000Y-118058185D01*
X154817000Y-118058185D02*
X154745571Y-118129614D01*
X154745571Y-118129614D02*
X154602714Y-118201042D01*
X154602714Y-118201042D02*
X154031285Y-118201042D01*
X156245571Y-118915328D02*
X155531285Y-118915328D01*
X155531285Y-118915328D02*
X155531285Y-117415328D01*
X157602714Y-118772471D02*
X157531286Y-118843900D01*
X157531286Y-118843900D02*
X157317000Y-118915328D01*
X157317000Y-118915328D02*
X157174143Y-118915328D01*
X157174143Y-118915328D02*
X156959857Y-118843900D01*
X156959857Y-118843900D02*
X156817000Y-118701042D01*
X156817000Y-118701042D02*
X156745571Y-118558185D01*
X156745571Y-118558185D02*
X156674143Y-118272471D01*
X156674143Y-118272471D02*
X156674143Y-118058185D01*
X156674143Y-118058185D02*
X156745571Y-117772471D01*
X156745571Y-117772471D02*
X156817000Y-117629614D01*
X156817000Y-117629614D02*
X156959857Y-117486757D01*
X156959857Y-117486757D02*
X157174143Y-117415328D01*
X157174143Y-117415328D02*
X157317000Y-117415328D01*
X157317000Y-117415328D02*
X157531286Y-117486757D01*
X157531286Y-117486757D02*
X157602714Y-117558185D01*
X158245571Y-118915328D02*
X158245571Y-117415328D01*
X159102714Y-118915328D02*
X158459857Y-118058185D01*
X159102714Y-117415328D02*
X158245571Y-118272471D01*
X141109427Y-118915328D02*
X141109427Y-117415328D01*
X141109427Y-117415328D02*
X141966570Y-118915328D01*
X141966570Y-118915328D02*
X141966570Y-117415328D01*
X142680856Y-117415328D02*
X142680856Y-118629614D01*
X142680856Y-118629614D02*
X142752285Y-118772471D01*
X142752285Y-118772471D02*
X142823714Y-118843900D01*
X142823714Y-118843900D02*
X142966571Y-118915328D01*
X142966571Y-118915328D02*
X143252285Y-118915328D01*
X143252285Y-118915328D02*
X143395142Y-118843900D01*
X143395142Y-118843900D02*
X143466571Y-118772471D01*
X143466571Y-118772471D02*
X143537999Y-118629614D01*
X143537999Y-118629614D02*
X143537999Y-117415328D01*
X144252285Y-118915328D02*
X144252285Y-117415328D01*
X144252285Y-117415328D02*
X144752285Y-118486757D01*
X144752285Y-118486757D02*
X145252285Y-117415328D01*
X145252285Y-117415328D02*
X145252285Y-118915328D01*
X146680857Y-118915328D02*
X145966571Y-118915328D01*
X145966571Y-118915328D02*
X145966571Y-117415328D01*
X148038000Y-118772471D02*
X147966572Y-118843900D01*
X147966572Y-118843900D02*
X147752286Y-118915328D01*
X147752286Y-118915328D02*
X147609429Y-118915328D01*
X147609429Y-118915328D02*
X147395143Y-118843900D01*
X147395143Y-118843900D02*
X147252286Y-118701042D01*
X147252286Y-118701042D02*
X147180857Y-118558185D01*
X147180857Y-118558185D02*
X147109429Y-118272471D01*
X147109429Y-118272471D02*
X147109429Y-118058185D01*
X147109429Y-118058185D02*
X147180857Y-117772471D01*
X147180857Y-117772471D02*
X147252286Y-117629614D01*
X147252286Y-117629614D02*
X147395143Y-117486757D01*
X147395143Y-117486757D02*
X147609429Y-117415328D01*
X147609429Y-117415328D02*
X147752286Y-117415328D01*
X147752286Y-117415328D02*
X147966572Y-117486757D01*
X147966572Y-117486757D02*
X148038000Y-117558185D01*
X148680857Y-118915328D02*
X148680857Y-117415328D01*
X149538000Y-118915328D02*
X148895143Y-118058185D01*
X149538000Y-117415328D02*
X148680857Y-118272471D01*
D12*
X130421905Y-131584819D02*
X130421905Y-130584819D01*
X130421905Y-130584819D02*
X130660000Y-130584819D01*
X130660000Y-130584819D02*
X130802857Y-130632438D01*
X130802857Y-130632438D02*
X130898095Y-130727676D01*
X130898095Y-130727676D02*
X130945714Y-130822914D01*
X130945714Y-130822914D02*
X130993333Y-131013390D01*
X130993333Y-131013390D02*
X130993333Y-131156247D01*
X130993333Y-131156247D02*
X130945714Y-131346723D01*
X130945714Y-131346723D02*
X130898095Y-131441961D01*
X130898095Y-131441961D02*
X130802857Y-131537200D01*
X130802857Y-131537200D02*
X130660000Y-131584819D01*
X130660000Y-131584819D02*
X130421905Y-131584819D01*
X131945714Y-131584819D02*
X131374286Y-131584819D01*
X131660000Y-131584819D02*
X131660000Y-130584819D01*
X131660000Y-130584819D02*
X131564762Y-130727676D01*
X131564762Y-130727676D02*
X131469524Y-130822914D01*
X131469524Y-130822914D02*
X131374286Y-130870533D01*
X140421905Y-131584819D02*
X140421905Y-130584819D01*
X140421905Y-130584819D02*
X140660000Y-130584819D01*
X140660000Y-130584819D02*
X140802857Y-130632438D01*
X140802857Y-130632438D02*
X140898095Y-130727676D01*
X140898095Y-130727676D02*
X140945714Y-130822914D01*
X140945714Y-130822914D02*
X140993333Y-131013390D01*
X140993333Y-131013390D02*
X140993333Y-131156247D01*
X140993333Y-131156247D02*
X140945714Y-131346723D01*
X140945714Y-131346723D02*
X140898095Y-131441961D01*
X140898095Y-131441961D02*
X140802857Y-131537200D01*
X140802857Y-131537200D02*
X140660000Y-131584819D01*
X140660000Y-131584819D02*
X140421905Y-131584819D01*
X141374286Y-130680057D02*
X141421905Y-130632438D01*
X141421905Y-130632438D02*
X141517143Y-130584819D01*
X141517143Y-130584819D02*
X141755238Y-130584819D01*
X141755238Y-130584819D02*
X141850476Y-130632438D01*
X141850476Y-130632438D02*
X141898095Y-130680057D01*
X141898095Y-130680057D02*
X141945714Y-130775295D01*
X141945714Y-130775295D02*
X141945714Y-130870533D01*
X141945714Y-130870533D02*
X141898095Y-131013390D01*
X141898095Y-131013390D02*
X141326667Y-131584819D01*
X141326667Y-131584819D02*
X141945714Y-131584819D01*
X150421905Y-131584819D02*
X150421905Y-130584819D01*
X150421905Y-130584819D02*
X150660000Y-130584819D01*
X150660000Y-130584819D02*
X150802857Y-130632438D01*
X150802857Y-130632438D02*
X150898095Y-130727676D01*
X150898095Y-130727676D02*
X150945714Y-130822914D01*
X150945714Y-130822914D02*
X150993333Y-131013390D01*
X150993333Y-131013390D02*
X150993333Y-131156247D01*
X150993333Y-131156247D02*
X150945714Y-131346723D01*
X150945714Y-131346723D02*
X150898095Y-131441961D01*
X150898095Y-131441961D02*
X150802857Y-131537200D01*
X150802857Y-131537200D02*
X150660000Y-131584819D01*
X150660000Y-131584819D02*
X150421905Y-131584819D01*
X151326667Y-130584819D02*
X151945714Y-130584819D01*
X151945714Y-130584819D02*
X151612381Y-130965771D01*
X151612381Y-130965771D02*
X151755238Y-130965771D01*
X151755238Y-130965771D02*
X151850476Y-131013390D01*
X151850476Y-131013390D02*
X151898095Y-131061009D01*
X151898095Y-131061009D02*
X151945714Y-131156247D01*
X151945714Y-131156247D02*
X151945714Y-131394342D01*
X151945714Y-131394342D02*
X151898095Y-131489580D01*
X151898095Y-131489580D02*
X151850476Y-131537200D01*
X151850476Y-131537200D02*
X151755238Y-131584819D01*
X151755238Y-131584819D02*
X151469524Y-131584819D01*
X151469524Y-131584819D02*
X151374286Y-131537200D01*
X151374286Y-131537200D02*
X151326667Y-131489580D01*
D11*
X169737465Y-87889851D02*
X169609182Y-87794701D01*
X169609182Y-87794701D02*
X169398152Y-87757490D01*
X169398152Y-87757490D02*
X169174718Y-87790623D01*
X169174718Y-87790623D02*
X169009224Y-87906503D01*
X169009224Y-87906503D02*
X168914074Y-88034787D01*
X168914074Y-88034787D02*
X168794117Y-88303757D01*
X168794117Y-88303757D02*
X168756907Y-88514787D01*
X168756907Y-88514787D02*
X168777636Y-88808564D01*
X168777636Y-88808564D02*
X168823173Y-88961655D01*
X168823173Y-88961655D02*
X168939053Y-89127148D01*
X168939053Y-89127148D02*
X169137680Y-89234702D01*
X169137680Y-89234702D02*
X169278366Y-89259509D01*
X169278366Y-89259509D02*
X169501800Y-89226376D01*
X169501800Y-89226376D02*
X169584547Y-89168436D01*
X169584547Y-89168436D02*
X169671371Y-88676032D01*
X169671371Y-88676032D02*
X169389997Y-88626418D01*
X170664333Y-87980752D02*
X170602316Y-88332469D01*
X170275406Y-88129765D02*
X170602316Y-88332469D01*
X170602316Y-88332469D02*
X170978840Y-88253800D01*
X170341672Y-88576633D02*
X170602316Y-88332469D01*
X170602316Y-88332469D02*
X170763732Y-88651053D01*
X171789828Y-88179207D02*
X171727810Y-88530924D01*
X171400900Y-88328220D02*
X171727810Y-88530924D01*
X171727810Y-88530924D02*
X172104334Y-88452255D01*
X171467166Y-88775088D02*
X171727810Y-88530924D01*
X171727810Y-88530924D02*
X171889227Y-88849508D01*
X172915322Y-88377662D02*
X172853305Y-88729379D01*
X172526395Y-88526675D02*
X172853305Y-88729379D01*
X172853305Y-88729379D02*
X173229829Y-88650710D01*
X172592661Y-88973543D02*
X172853305Y-88729379D01*
X172853305Y-88729379D02*
X173014721Y-89047963D01*
D12*
X135299795Y-97015225D02*
X134499795Y-97015225D01*
X134499795Y-97015225D02*
X134499795Y-96824749D01*
X134499795Y-96824749D02*
X134537890Y-96710463D01*
X134537890Y-96710463D02*
X134614080Y-96634273D01*
X134614080Y-96634273D02*
X134690271Y-96596178D01*
X134690271Y-96596178D02*
X134842652Y-96558082D01*
X134842652Y-96558082D02*
X134956938Y-96558082D01*
X134956938Y-96558082D02*
X135109319Y-96596178D01*
X135109319Y-96596178D02*
X135185509Y-96634273D01*
X135185509Y-96634273D02*
X135261700Y-96710463D01*
X135261700Y-96710463D02*
X135299795Y-96824749D01*
X135299795Y-96824749D02*
X135299795Y-97015225D01*
X134499795Y-96062844D02*
X134499795Y-95986654D01*
X134499795Y-95986654D02*
X134537890Y-95910463D01*
X134537890Y-95910463D02*
X134575985Y-95872368D01*
X134575985Y-95872368D02*
X134652176Y-95834273D01*
X134652176Y-95834273D02*
X134804557Y-95796178D01*
X134804557Y-95796178D02*
X134995033Y-95796178D01*
X134995033Y-95796178D02*
X135147414Y-95834273D01*
X135147414Y-95834273D02*
X135223604Y-95872368D01*
X135223604Y-95872368D02*
X135261700Y-95910463D01*
X135261700Y-95910463D02*
X135299795Y-95986654D01*
X135299795Y-95986654D02*
X135299795Y-96062844D01*
X135299795Y-96062844D02*
X135261700Y-96139035D01*
X135261700Y-96139035D02*
X135223604Y-96177130D01*
X135223604Y-96177130D02*
X135147414Y-96215225D01*
X135147414Y-96215225D02*
X134995033Y-96253321D01*
X134995033Y-96253321D02*
X134804557Y-96253321D01*
X134804557Y-96253321D02*
X134652176Y-96215225D01*
X134652176Y-96215225D02*
X134575985Y-96177130D01*
X134575985Y-96177130D02*
X134537890Y-96139035D01*
X134537890Y-96139035D02*
X134499795Y-96062844D01*
X145459795Y-97015225D02*
X144659795Y-97015225D01*
X144659795Y-97015225D02*
X144659795Y-96824749D01*
X144659795Y-96824749D02*
X144697890Y-96710463D01*
X144697890Y-96710463D02*
X144774080Y-96634273D01*
X144774080Y-96634273D02*
X144850271Y-96596178D01*
X144850271Y-96596178D02*
X145002652Y-96558082D01*
X145002652Y-96558082D02*
X145116938Y-96558082D01*
X145116938Y-96558082D02*
X145269319Y-96596178D01*
X145269319Y-96596178D02*
X145345509Y-96634273D01*
X145345509Y-96634273D02*
X145421700Y-96710463D01*
X145421700Y-96710463D02*
X145459795Y-96824749D01*
X145459795Y-96824749D02*
X145459795Y-97015225D01*
X144735985Y-96253321D02*
X144697890Y-96215225D01*
X144697890Y-96215225D02*
X144659795Y-96139035D01*
X144659795Y-96139035D02*
X144659795Y-95948559D01*
X144659795Y-95948559D02*
X144697890Y-95872368D01*
X144697890Y-95872368D02*
X144735985Y-95834273D01*
X144735985Y-95834273D02*
X144812176Y-95796178D01*
X144812176Y-95796178D02*
X144888366Y-95796178D01*
X144888366Y-95796178D02*
X145002652Y-95834273D01*
X145002652Y-95834273D02*
X145459795Y-96291416D01*
X145459795Y-96291416D02*
X145459795Y-95796178D01*
X122180747Y-85826559D02*
X122218842Y-85712273D01*
X122218842Y-85712273D02*
X122256938Y-85674178D01*
X122256938Y-85674178D02*
X122333128Y-85636082D01*
X122333128Y-85636082D02*
X122447414Y-85636082D01*
X122447414Y-85636082D02*
X122523604Y-85674178D01*
X122523604Y-85674178D02*
X122561700Y-85712273D01*
X122561700Y-85712273D02*
X122599795Y-85788463D01*
X122599795Y-85788463D02*
X122599795Y-86093225D01*
X122599795Y-86093225D02*
X121799795Y-86093225D01*
X121799795Y-86093225D02*
X121799795Y-85826559D01*
X121799795Y-85826559D02*
X121837890Y-85750368D01*
X121837890Y-85750368D02*
X121875985Y-85712273D01*
X121875985Y-85712273D02*
X121952176Y-85674178D01*
X121952176Y-85674178D02*
X122028366Y-85674178D01*
X122028366Y-85674178D02*
X122104557Y-85712273D01*
X122104557Y-85712273D02*
X122142652Y-85750368D01*
X122142652Y-85750368D02*
X122180747Y-85826559D01*
X122180747Y-85826559D02*
X122180747Y-86093225D01*
X121875985Y-85331321D02*
X121837890Y-85293225D01*
X121837890Y-85293225D02*
X121799795Y-85217035D01*
X121799795Y-85217035D02*
X121799795Y-85026559D01*
X121799795Y-85026559D02*
X121837890Y-84950368D01*
X121837890Y-84950368D02*
X121875985Y-84912273D01*
X121875985Y-84912273D02*
X121952176Y-84874178D01*
X121952176Y-84874178D02*
X122028366Y-84874178D01*
X122028366Y-84874178D02*
X122142652Y-84912273D01*
X122142652Y-84912273D02*
X122599795Y-85369416D01*
X122599795Y-85369416D02*
X122599795Y-84874178D01*
X124720747Y-96977130D02*
X124720747Y-96710464D01*
X125139795Y-96596178D02*
X125139795Y-96977130D01*
X125139795Y-96977130D02*
X124339795Y-96977130D01*
X124339795Y-96977130D02*
X124339795Y-96596178D01*
X124339795Y-95910463D02*
X124339795Y-96062844D01*
X124339795Y-96062844D02*
X124377890Y-96139035D01*
X124377890Y-96139035D02*
X124415985Y-96177130D01*
X124415985Y-96177130D02*
X124530271Y-96253320D01*
X124530271Y-96253320D02*
X124682652Y-96291416D01*
X124682652Y-96291416D02*
X124987414Y-96291416D01*
X124987414Y-96291416D02*
X125063604Y-96253320D01*
X125063604Y-96253320D02*
X125101700Y-96215225D01*
X125101700Y-96215225D02*
X125139795Y-96139035D01*
X125139795Y-96139035D02*
X125139795Y-95986654D01*
X125139795Y-95986654D02*
X125101700Y-95910463D01*
X125101700Y-95910463D02*
X125063604Y-95872368D01*
X125063604Y-95872368D02*
X124987414Y-95834273D01*
X124987414Y-95834273D02*
X124796938Y-95834273D01*
X124796938Y-95834273D02*
X124720747Y-95872368D01*
X124720747Y-95872368D02*
X124682652Y-95910463D01*
X124682652Y-95910463D02*
X124644557Y-95986654D01*
X124644557Y-95986654D02*
X124644557Y-96139035D01*
X124644557Y-96139035D02*
X124682652Y-96215225D01*
X124682652Y-96215225D02*
X124720747Y-96253320D01*
X124720747Y-96253320D02*
X124796938Y-96291416D01*
X139617890Y-97034273D02*
X139579795Y-97110463D01*
X139579795Y-97110463D02*
X139579795Y-97224749D01*
X139579795Y-97224749D02*
X139617890Y-97339035D01*
X139617890Y-97339035D02*
X139694080Y-97415225D01*
X139694080Y-97415225D02*
X139770271Y-97453320D01*
X139770271Y-97453320D02*
X139922652Y-97491416D01*
X139922652Y-97491416D02*
X140036938Y-97491416D01*
X140036938Y-97491416D02*
X140189319Y-97453320D01*
X140189319Y-97453320D02*
X140265509Y-97415225D01*
X140265509Y-97415225D02*
X140341700Y-97339035D01*
X140341700Y-97339035D02*
X140379795Y-97224749D01*
X140379795Y-97224749D02*
X140379795Y-97148558D01*
X140379795Y-97148558D02*
X140341700Y-97034273D01*
X140341700Y-97034273D02*
X140303604Y-96996177D01*
X140303604Y-96996177D02*
X140036938Y-96996177D01*
X140036938Y-96996177D02*
X140036938Y-97148558D01*
X140379795Y-96653320D02*
X139579795Y-96653320D01*
X139579795Y-96653320D02*
X140379795Y-96196177D01*
X140379795Y-96196177D02*
X139579795Y-96196177D01*
X140379795Y-95815225D02*
X139579795Y-95815225D01*
X139579795Y-95815225D02*
X139579795Y-95624749D01*
X139579795Y-95624749D02*
X139617890Y-95510463D01*
X139617890Y-95510463D02*
X139694080Y-95434273D01*
X139694080Y-95434273D02*
X139770271Y-95396178D01*
X139770271Y-95396178D02*
X139922652Y-95358082D01*
X139922652Y-95358082D02*
X140036938Y-95358082D01*
X140036938Y-95358082D02*
X140189319Y-95396178D01*
X140189319Y-95396178D02*
X140265509Y-95434273D01*
X140265509Y-95434273D02*
X140341700Y-95510463D01*
X140341700Y-95510463D02*
X140379795Y-95624749D01*
X140379795Y-95624749D02*
X140379795Y-95815225D01*
X142901700Y-86457083D02*
X142939795Y-86342797D01*
X142939795Y-86342797D02*
X142939795Y-86152321D01*
X142939795Y-86152321D02*
X142901700Y-86076130D01*
X142901700Y-86076130D02*
X142863604Y-86038035D01*
X142863604Y-86038035D02*
X142787414Y-85999940D01*
X142787414Y-85999940D02*
X142711223Y-85999940D01*
X142711223Y-85999940D02*
X142635033Y-86038035D01*
X142635033Y-86038035D02*
X142596938Y-86076130D01*
X142596938Y-86076130D02*
X142558842Y-86152321D01*
X142558842Y-86152321D02*
X142520747Y-86304702D01*
X142520747Y-86304702D02*
X142482652Y-86380892D01*
X142482652Y-86380892D02*
X142444557Y-86418987D01*
X142444557Y-86418987D02*
X142368366Y-86457083D01*
X142368366Y-86457083D02*
X142292176Y-86457083D01*
X142292176Y-86457083D02*
X142215985Y-86418987D01*
X142215985Y-86418987D02*
X142177890Y-86380892D01*
X142177890Y-86380892D02*
X142139795Y-86304702D01*
X142139795Y-86304702D02*
X142139795Y-86114225D01*
X142139795Y-86114225D02*
X142177890Y-85999940D01*
X142139795Y-85771368D02*
X142139795Y-85314225D01*
X142939795Y-85542797D02*
X142139795Y-85542797D01*
X130143604Y-96558082D02*
X130181700Y-96596178D01*
X130181700Y-96596178D02*
X130219795Y-96710463D01*
X130219795Y-96710463D02*
X130219795Y-96786654D01*
X130219795Y-96786654D02*
X130181700Y-96900940D01*
X130181700Y-96900940D02*
X130105509Y-96977130D01*
X130105509Y-96977130D02*
X130029319Y-97015225D01*
X130029319Y-97015225D02*
X129876938Y-97053321D01*
X129876938Y-97053321D02*
X129762652Y-97053321D01*
X129762652Y-97053321D02*
X129610271Y-97015225D01*
X129610271Y-97015225D02*
X129534080Y-96977130D01*
X129534080Y-96977130D02*
X129457890Y-96900940D01*
X129457890Y-96900940D02*
X129419795Y-96786654D01*
X129419795Y-96786654D02*
X129419795Y-96710463D01*
X129419795Y-96710463D02*
X129457890Y-96596178D01*
X129457890Y-96596178D02*
X129495985Y-96558082D01*
X129419795Y-95872368D02*
X129419795Y-96024749D01*
X129419795Y-96024749D02*
X129457890Y-96100940D01*
X129457890Y-96100940D02*
X129495985Y-96139035D01*
X129495985Y-96139035D02*
X129610271Y-96215225D01*
X129610271Y-96215225D02*
X129762652Y-96253321D01*
X129762652Y-96253321D02*
X130067414Y-96253321D01*
X130067414Y-96253321D02*
X130143604Y-96215225D01*
X130143604Y-96215225D02*
X130181700Y-96177130D01*
X130181700Y-96177130D02*
X130219795Y-96100940D01*
X130219795Y-96100940D02*
X130219795Y-95948559D01*
X130219795Y-95948559D02*
X130181700Y-95872368D01*
X130181700Y-95872368D02*
X130143604Y-95834273D01*
X130143604Y-95834273D02*
X130067414Y-95796178D01*
X130067414Y-95796178D02*
X129876938Y-95796178D01*
X129876938Y-95796178D02*
X129800747Y-95834273D01*
X129800747Y-95834273D02*
X129762652Y-95872368D01*
X129762652Y-95872368D02*
X129724557Y-95948559D01*
X129724557Y-95948559D02*
X129724557Y-96100940D01*
X129724557Y-96100940D02*
X129762652Y-96177130D01*
X129762652Y-96177130D02*
X129800747Y-96215225D01*
X129800747Y-96215225D02*
X129876938Y-96253321D01*
X147199795Y-96726098D02*
X147199795Y-96268955D01*
X147999795Y-96497527D02*
X147199795Y-96497527D01*
X147199795Y-96078479D02*
X147999795Y-95545145D01*
X147199795Y-95545145D02*
X147999795Y-96078479D01*
X147199795Y-95088002D02*
X147199795Y-95011812D01*
X147199795Y-95011812D02*
X147237890Y-94935621D01*
X147237890Y-94935621D02*
X147275985Y-94897526D01*
X147275985Y-94897526D02*
X147352176Y-94859431D01*
X147352176Y-94859431D02*
X147504557Y-94821336D01*
X147504557Y-94821336D02*
X147695033Y-94821336D01*
X147695033Y-94821336D02*
X147847414Y-94859431D01*
X147847414Y-94859431D02*
X147923604Y-94897526D01*
X147923604Y-94897526D02*
X147961700Y-94935621D01*
X147961700Y-94935621D02*
X147999795Y-95011812D01*
X147999795Y-95011812D02*
X147999795Y-95088002D01*
X147999795Y-95088002D02*
X147961700Y-95164193D01*
X147961700Y-95164193D02*
X147923604Y-95202288D01*
X147923604Y-95202288D02*
X147847414Y-95240383D01*
X147847414Y-95240383D02*
X147695033Y-95278479D01*
X147695033Y-95278479D02*
X147504557Y-95278479D01*
X147504557Y-95278479D02*
X147352176Y-95240383D01*
X147352176Y-95240383D02*
X147275985Y-95202288D01*
X147275985Y-95202288D02*
X147237890Y-95164193D01*
X147237890Y-95164193D02*
X147199795Y-95088002D01*
X147161700Y-93907050D02*
X148190271Y-94592764D01*
X147999795Y-93640383D02*
X147199795Y-93640383D01*
X147199795Y-93640383D02*
X147199795Y-93449907D01*
X147199795Y-93449907D02*
X147237890Y-93335621D01*
X147237890Y-93335621D02*
X147314080Y-93259431D01*
X147314080Y-93259431D02*
X147390271Y-93221336D01*
X147390271Y-93221336D02*
X147542652Y-93183240D01*
X147542652Y-93183240D02*
X147656938Y-93183240D01*
X147656938Y-93183240D02*
X147809319Y-93221336D01*
X147809319Y-93221336D02*
X147885509Y-93259431D01*
X147885509Y-93259431D02*
X147961700Y-93335621D01*
X147961700Y-93335621D02*
X147999795Y-93449907D01*
X147999795Y-93449907D02*
X147999795Y-93640383D01*
X147199795Y-92916574D02*
X147199795Y-92421336D01*
X147199795Y-92421336D02*
X147504557Y-92688002D01*
X147504557Y-92688002D02*
X147504557Y-92573717D01*
X147504557Y-92573717D02*
X147542652Y-92497526D01*
X147542652Y-92497526D02*
X147580747Y-92459431D01*
X147580747Y-92459431D02*
X147656938Y-92421336D01*
X147656938Y-92421336D02*
X147847414Y-92421336D01*
X147847414Y-92421336D02*
X147923604Y-92459431D01*
X147923604Y-92459431D02*
X147961700Y-92497526D01*
X147961700Y-92497526D02*
X147999795Y-92573717D01*
X147999795Y-92573717D02*
X147999795Y-92802288D01*
X147999795Y-92802288D02*
X147961700Y-92878479D01*
X147961700Y-92878479D02*
X147923604Y-92916574D01*
X132759795Y-97015225D02*
X131959795Y-97015225D01*
X131959795Y-97015225D02*
X131959795Y-96824749D01*
X131959795Y-96824749D02*
X131997890Y-96710463D01*
X131997890Y-96710463D02*
X132074080Y-96634273D01*
X132074080Y-96634273D02*
X132150271Y-96596178D01*
X132150271Y-96596178D02*
X132302652Y-96558082D01*
X132302652Y-96558082D02*
X132416938Y-96558082D01*
X132416938Y-96558082D02*
X132569319Y-96596178D01*
X132569319Y-96596178D02*
X132645509Y-96634273D01*
X132645509Y-96634273D02*
X132721700Y-96710463D01*
X132721700Y-96710463D02*
X132759795Y-96824749D01*
X132759795Y-96824749D02*
X132759795Y-97015225D01*
X132226461Y-95872368D02*
X132759795Y-95872368D01*
X131921700Y-96062844D02*
X132493128Y-96253321D01*
X132493128Y-96253321D02*
X132493128Y-95758082D01*
X142157890Y-97034273D02*
X142119795Y-97110463D01*
X142119795Y-97110463D02*
X142119795Y-97224749D01*
X142119795Y-97224749D02*
X142157890Y-97339035D01*
X142157890Y-97339035D02*
X142234080Y-97415225D01*
X142234080Y-97415225D02*
X142310271Y-97453320D01*
X142310271Y-97453320D02*
X142462652Y-97491416D01*
X142462652Y-97491416D02*
X142576938Y-97491416D01*
X142576938Y-97491416D02*
X142729319Y-97453320D01*
X142729319Y-97453320D02*
X142805509Y-97415225D01*
X142805509Y-97415225D02*
X142881700Y-97339035D01*
X142881700Y-97339035D02*
X142919795Y-97224749D01*
X142919795Y-97224749D02*
X142919795Y-97148558D01*
X142919795Y-97148558D02*
X142881700Y-97034273D01*
X142881700Y-97034273D02*
X142843604Y-96996177D01*
X142843604Y-96996177D02*
X142576938Y-96996177D01*
X142576938Y-96996177D02*
X142576938Y-97148558D01*
X142919795Y-96653320D02*
X142119795Y-96653320D01*
X142119795Y-96653320D02*
X142919795Y-96196177D01*
X142919795Y-96196177D02*
X142119795Y-96196177D01*
X142919795Y-95815225D02*
X142119795Y-95815225D01*
X142119795Y-95815225D02*
X142119795Y-95624749D01*
X142119795Y-95624749D02*
X142157890Y-95510463D01*
X142157890Y-95510463D02*
X142234080Y-95434273D01*
X142234080Y-95434273D02*
X142310271Y-95396178D01*
X142310271Y-95396178D02*
X142462652Y-95358082D01*
X142462652Y-95358082D02*
X142576938Y-95358082D01*
X142576938Y-95358082D02*
X142729319Y-95396178D01*
X142729319Y-95396178D02*
X142805509Y-95434273D01*
X142805509Y-95434273D02*
X142881700Y-95510463D01*
X142881700Y-95510463D02*
X142919795Y-95624749D01*
X142919795Y-95624749D02*
X142919795Y-95815225D01*
X137420747Y-85769416D02*
X137420747Y-86036082D01*
X137839795Y-86036082D02*
X137039795Y-86036082D01*
X137039795Y-86036082D02*
X137039795Y-85655130D01*
X137306461Y-85007511D02*
X137839795Y-85007511D01*
X137001700Y-85197987D02*
X137573128Y-85388464D01*
X137573128Y-85388464D02*
X137573128Y-84893225D01*
X120802956Y-97127600D02*
X120850096Y-97221881D01*
X120850096Y-97221881D02*
X120850096Y-97269021D01*
X120850096Y-97269021D02*
X120826526Y-97339732D01*
X120826526Y-97339732D02*
X120755816Y-97410442D01*
X120755816Y-97410442D02*
X120685105Y-97434013D01*
X120685105Y-97434013D02*
X120637964Y-97434013D01*
X120637964Y-97434013D02*
X120567254Y-97410442D01*
X120567254Y-97410442D02*
X120378692Y-97221881D01*
X120378692Y-97221881D02*
X120873667Y-96726906D01*
X120873667Y-96726906D02*
X121038658Y-96891897D01*
X121038658Y-96891897D02*
X121062228Y-96962608D01*
X121062228Y-96962608D02*
X121062228Y-97009749D01*
X121062228Y-97009749D02*
X121038658Y-97080459D01*
X121038658Y-97080459D02*
X120991518Y-97127600D01*
X120991518Y-97127600D02*
X120920807Y-97151170D01*
X120920807Y-97151170D02*
X120873667Y-97151170D01*
X120873667Y-97151170D02*
X120802956Y-97127600D01*
X120802956Y-97127600D02*
X120637964Y-96962608D01*
X121604344Y-97457583D02*
X121368641Y-97221881D01*
X121368641Y-97221881D02*
X121109369Y-97434013D01*
X121109369Y-97434013D02*
X121156509Y-97434013D01*
X121156509Y-97434013D02*
X121227220Y-97457583D01*
X121227220Y-97457583D02*
X121345071Y-97575434D01*
X121345071Y-97575434D02*
X121368641Y-97646145D01*
X121368641Y-97646145D02*
X121368641Y-97693285D01*
X121368641Y-97693285D02*
X121345071Y-97763996D01*
X121345071Y-97763996D02*
X121227220Y-97881847D01*
X121227220Y-97881847D02*
X121156509Y-97905417D01*
X121156509Y-97905417D02*
X121109369Y-97905417D01*
X121109369Y-97905417D02*
X121038658Y-97881847D01*
X121038658Y-97881847D02*
X120920807Y-97763996D01*
X120920807Y-97763996D02*
X120897237Y-97693285D01*
X120897237Y-97693285D02*
X120897237Y-97646145D01*
X124720747Y-85826559D02*
X124758842Y-85712273D01*
X124758842Y-85712273D02*
X124796938Y-85674178D01*
X124796938Y-85674178D02*
X124873128Y-85636082D01*
X124873128Y-85636082D02*
X124987414Y-85636082D01*
X124987414Y-85636082D02*
X125063604Y-85674178D01*
X125063604Y-85674178D02*
X125101700Y-85712273D01*
X125101700Y-85712273D02*
X125139795Y-85788463D01*
X125139795Y-85788463D02*
X125139795Y-86093225D01*
X125139795Y-86093225D02*
X124339795Y-86093225D01*
X124339795Y-86093225D02*
X124339795Y-85826559D01*
X124339795Y-85826559D02*
X124377890Y-85750368D01*
X124377890Y-85750368D02*
X124415985Y-85712273D01*
X124415985Y-85712273D02*
X124492176Y-85674178D01*
X124492176Y-85674178D02*
X124568366Y-85674178D01*
X124568366Y-85674178D02*
X124644557Y-85712273D01*
X124644557Y-85712273D02*
X124682652Y-85750368D01*
X124682652Y-85750368D02*
X124720747Y-85826559D01*
X124720747Y-85826559D02*
X124720747Y-86093225D01*
X124339795Y-85369416D02*
X124339795Y-84874178D01*
X124339795Y-84874178D02*
X124644557Y-85140844D01*
X124644557Y-85140844D02*
X124644557Y-85026559D01*
X124644557Y-85026559D02*
X124682652Y-84950368D01*
X124682652Y-84950368D02*
X124720747Y-84912273D01*
X124720747Y-84912273D02*
X124796938Y-84874178D01*
X124796938Y-84874178D02*
X124987414Y-84874178D01*
X124987414Y-84874178D02*
X125063604Y-84912273D01*
X125063604Y-84912273D02*
X125101700Y-84950368D01*
X125101700Y-84950368D02*
X125139795Y-85026559D01*
X125139795Y-85026559D02*
X125139795Y-85255130D01*
X125139795Y-85255130D02*
X125101700Y-85331321D01*
X125101700Y-85331321D02*
X125063604Y-85369416D01*
X132340747Y-85769416D02*
X132340747Y-86036082D01*
X132759795Y-86036082D02*
X131959795Y-86036082D01*
X131959795Y-86036082D02*
X131959795Y-85655130D01*
X131959795Y-85007511D02*
X131959795Y-85159892D01*
X131959795Y-85159892D02*
X131997890Y-85236083D01*
X131997890Y-85236083D02*
X132035985Y-85274178D01*
X132035985Y-85274178D02*
X132150271Y-85350368D01*
X132150271Y-85350368D02*
X132302652Y-85388464D01*
X132302652Y-85388464D02*
X132607414Y-85388464D01*
X132607414Y-85388464D02*
X132683604Y-85350368D01*
X132683604Y-85350368D02*
X132721700Y-85312273D01*
X132721700Y-85312273D02*
X132759795Y-85236083D01*
X132759795Y-85236083D02*
X132759795Y-85083702D01*
X132759795Y-85083702D02*
X132721700Y-85007511D01*
X132721700Y-85007511D02*
X132683604Y-84969416D01*
X132683604Y-84969416D02*
X132607414Y-84931321D01*
X132607414Y-84931321D02*
X132416938Y-84931321D01*
X132416938Y-84931321D02*
X132340747Y-84969416D01*
X132340747Y-84969416D02*
X132302652Y-85007511D01*
X132302652Y-85007511D02*
X132264557Y-85083702D01*
X132264557Y-85083702D02*
X132264557Y-85236083D01*
X132264557Y-85236083D02*
X132302652Y-85312273D01*
X132302652Y-85312273D02*
X132340747Y-85350368D01*
X132340747Y-85350368D02*
X132416938Y-85388464D01*
X127260747Y-85826559D02*
X127298842Y-85712273D01*
X127298842Y-85712273D02*
X127336938Y-85674178D01*
X127336938Y-85674178D02*
X127413128Y-85636082D01*
X127413128Y-85636082D02*
X127527414Y-85636082D01*
X127527414Y-85636082D02*
X127603604Y-85674178D01*
X127603604Y-85674178D02*
X127641700Y-85712273D01*
X127641700Y-85712273D02*
X127679795Y-85788463D01*
X127679795Y-85788463D02*
X127679795Y-86093225D01*
X127679795Y-86093225D02*
X126879795Y-86093225D01*
X126879795Y-86093225D02*
X126879795Y-85826559D01*
X126879795Y-85826559D02*
X126917890Y-85750368D01*
X126917890Y-85750368D02*
X126955985Y-85712273D01*
X126955985Y-85712273D02*
X127032176Y-85674178D01*
X127032176Y-85674178D02*
X127108366Y-85674178D01*
X127108366Y-85674178D02*
X127184557Y-85712273D01*
X127184557Y-85712273D02*
X127222652Y-85750368D01*
X127222652Y-85750368D02*
X127260747Y-85826559D01*
X127260747Y-85826559D02*
X127260747Y-86093225D01*
X127679795Y-84874178D02*
X127679795Y-85331321D01*
X127679795Y-85102749D02*
X126879795Y-85102749D01*
X126879795Y-85102749D02*
X126994080Y-85178940D01*
X126994080Y-85178940D02*
X127070271Y-85255130D01*
X127070271Y-85255130D02*
X127108366Y-85331321D01*
X144697890Y-86112273D02*
X144659795Y-86188463D01*
X144659795Y-86188463D02*
X144659795Y-86302749D01*
X144659795Y-86302749D02*
X144697890Y-86417035D01*
X144697890Y-86417035D02*
X144774080Y-86493225D01*
X144774080Y-86493225D02*
X144850271Y-86531320D01*
X144850271Y-86531320D02*
X145002652Y-86569416D01*
X145002652Y-86569416D02*
X145116938Y-86569416D01*
X145116938Y-86569416D02*
X145269319Y-86531320D01*
X145269319Y-86531320D02*
X145345509Y-86493225D01*
X145345509Y-86493225D02*
X145421700Y-86417035D01*
X145421700Y-86417035D02*
X145459795Y-86302749D01*
X145459795Y-86302749D02*
X145459795Y-86226558D01*
X145459795Y-86226558D02*
X145421700Y-86112273D01*
X145421700Y-86112273D02*
X145383604Y-86074177D01*
X145383604Y-86074177D02*
X145116938Y-86074177D01*
X145116938Y-86074177D02*
X145116938Y-86226558D01*
X145459795Y-85731320D02*
X144659795Y-85731320D01*
X144659795Y-85731320D02*
X145459795Y-85274177D01*
X145459795Y-85274177D02*
X144659795Y-85274177D01*
X145459795Y-84893225D02*
X144659795Y-84893225D01*
X144659795Y-84893225D02*
X144659795Y-84702749D01*
X144659795Y-84702749D02*
X144697890Y-84588463D01*
X144697890Y-84588463D02*
X144774080Y-84512273D01*
X144774080Y-84512273D02*
X144850271Y-84474178D01*
X144850271Y-84474178D02*
X145002652Y-84436082D01*
X145002652Y-84436082D02*
X145116938Y-84436082D01*
X145116938Y-84436082D02*
X145269319Y-84474178D01*
X145269319Y-84474178D02*
X145345509Y-84512273D01*
X145345509Y-84512273D02*
X145421700Y-84588463D01*
X145421700Y-84588463D02*
X145459795Y-84702749D01*
X145459795Y-84702749D02*
X145459795Y-84893225D01*
X121203649Y-84399206D02*
X121109368Y-84446346D01*
X121109368Y-84446346D02*
X121062228Y-84446346D01*
X121062228Y-84446346D02*
X120991517Y-84422776D01*
X120991517Y-84422776D02*
X120920807Y-84352066D01*
X120920807Y-84352066D02*
X120897236Y-84281355D01*
X120897236Y-84281355D02*
X120897236Y-84234214D01*
X120897236Y-84234214D02*
X120920807Y-84163504D01*
X120920807Y-84163504D02*
X121109368Y-83974942D01*
X121109368Y-83974942D02*
X121604343Y-84469917D01*
X121604343Y-84469917D02*
X121439352Y-84634908D01*
X121439352Y-84634908D02*
X121368641Y-84658478D01*
X121368641Y-84658478D02*
X121321500Y-84658478D01*
X121321500Y-84658478D02*
X121250790Y-84634908D01*
X121250790Y-84634908D02*
X121203649Y-84587768D01*
X121203649Y-84587768D02*
X121180079Y-84517057D01*
X121180079Y-84517057D02*
X121180079Y-84469917D01*
X121180079Y-84469917D02*
X121203649Y-84399206D01*
X121203649Y-84399206D02*
X121368641Y-84234214D01*
X120897236Y-85177023D02*
X120991517Y-85082743D01*
X120991517Y-85082743D02*
X121015088Y-85012032D01*
X121015088Y-85012032D02*
X121015088Y-84964891D01*
X121015088Y-84964891D02*
X120991517Y-84847040D01*
X120991517Y-84847040D02*
X120920807Y-84729189D01*
X120920807Y-84729189D02*
X120732245Y-84540627D01*
X120732245Y-84540627D02*
X120661534Y-84517057D01*
X120661534Y-84517057D02*
X120614394Y-84517057D01*
X120614394Y-84517057D02*
X120543683Y-84540627D01*
X120543683Y-84540627D02*
X120449402Y-84634908D01*
X120449402Y-84634908D02*
X120425832Y-84705619D01*
X120425832Y-84705619D02*
X120425832Y-84752759D01*
X120425832Y-84752759D02*
X120449402Y-84823470D01*
X120449402Y-84823470D02*
X120567253Y-84941321D01*
X120567253Y-84941321D02*
X120637964Y-84964891D01*
X120637964Y-84964891D02*
X120685104Y-84964891D01*
X120685104Y-84964891D02*
X120755815Y-84941321D01*
X120755815Y-84941321D02*
X120850096Y-84847040D01*
X120850096Y-84847040D02*
X120873666Y-84776330D01*
X120873666Y-84776330D02*
X120873666Y-84729189D01*
X120873666Y-84729189D02*
X120850096Y-84658478D01*
X134880747Y-85769416D02*
X134880747Y-86036082D01*
X135299795Y-86036082D02*
X134499795Y-86036082D01*
X134499795Y-86036082D02*
X134499795Y-85655130D01*
X134499795Y-84969416D02*
X134499795Y-85350368D01*
X134499795Y-85350368D02*
X134880747Y-85388464D01*
X134880747Y-85388464D02*
X134842652Y-85350368D01*
X134842652Y-85350368D02*
X134804557Y-85274178D01*
X134804557Y-85274178D02*
X134804557Y-85083702D01*
X134804557Y-85083702D02*
X134842652Y-85007511D01*
X134842652Y-85007511D02*
X134880747Y-84969416D01*
X134880747Y-84969416D02*
X134956938Y-84931321D01*
X134956938Y-84931321D02*
X135147414Y-84931321D01*
X135147414Y-84931321D02*
X135223604Y-84969416D01*
X135223604Y-84969416D02*
X135261700Y-85007511D01*
X135261700Y-85007511D02*
X135299795Y-85083702D01*
X135299795Y-85083702D02*
X135299795Y-85274178D01*
X135299795Y-85274178D02*
X135261700Y-85350368D01*
X135261700Y-85350368D02*
X135223604Y-85388464D01*
X139579795Y-86569416D02*
X140379795Y-86302749D01*
X140379795Y-86302749D02*
X139579795Y-86036083D01*
X140303604Y-85312273D02*
X140341700Y-85350369D01*
X140341700Y-85350369D02*
X140379795Y-85464654D01*
X140379795Y-85464654D02*
X140379795Y-85540845D01*
X140379795Y-85540845D02*
X140341700Y-85655131D01*
X140341700Y-85655131D02*
X140265509Y-85731321D01*
X140265509Y-85731321D02*
X140189319Y-85769416D01*
X140189319Y-85769416D02*
X140036938Y-85807512D01*
X140036938Y-85807512D02*
X139922652Y-85807512D01*
X139922652Y-85807512D02*
X139770271Y-85769416D01*
X139770271Y-85769416D02*
X139694080Y-85731321D01*
X139694080Y-85731321D02*
X139617890Y-85655131D01*
X139617890Y-85655131D02*
X139579795Y-85540845D01*
X139579795Y-85540845D02*
X139579795Y-85464654D01*
X139579795Y-85464654D02*
X139617890Y-85350369D01*
X139617890Y-85350369D02*
X139655985Y-85312273D01*
X140303604Y-84512273D02*
X140341700Y-84550369D01*
X140341700Y-84550369D02*
X140379795Y-84664654D01*
X140379795Y-84664654D02*
X140379795Y-84740845D01*
X140379795Y-84740845D02*
X140341700Y-84855131D01*
X140341700Y-84855131D02*
X140265509Y-84931321D01*
X140265509Y-84931321D02*
X140189319Y-84969416D01*
X140189319Y-84969416D02*
X140036938Y-85007512D01*
X140036938Y-85007512D02*
X139922652Y-85007512D01*
X139922652Y-85007512D02*
X139770271Y-84969416D01*
X139770271Y-84969416D02*
X139694080Y-84931321D01*
X139694080Y-84931321D02*
X139617890Y-84855131D01*
X139617890Y-84855131D02*
X139579795Y-84740845D01*
X139579795Y-84740845D02*
X139579795Y-84664654D01*
X139579795Y-84664654D02*
X139617890Y-84550369D01*
X139617890Y-84550369D02*
X139655985Y-84512273D01*
X127679795Y-97015225D02*
X126879795Y-97015225D01*
X126879795Y-97015225D02*
X126879795Y-96824749D01*
X126879795Y-96824749D02*
X126917890Y-96710463D01*
X126917890Y-96710463D02*
X126994080Y-96634273D01*
X126994080Y-96634273D02*
X127070271Y-96596178D01*
X127070271Y-96596178D02*
X127222652Y-96558082D01*
X127222652Y-96558082D02*
X127336938Y-96558082D01*
X127336938Y-96558082D02*
X127489319Y-96596178D01*
X127489319Y-96596178D02*
X127565509Y-96634273D01*
X127565509Y-96634273D02*
X127641700Y-96710463D01*
X127641700Y-96710463D02*
X127679795Y-96824749D01*
X127679795Y-96824749D02*
X127679795Y-97015225D01*
X126879795Y-96291416D02*
X126879795Y-95758082D01*
X126879795Y-95758082D02*
X127679795Y-96100940D01*
X122180747Y-96748559D02*
X122218842Y-96634273D01*
X122218842Y-96634273D02*
X122256938Y-96596178D01*
X122256938Y-96596178D02*
X122333128Y-96558082D01*
X122333128Y-96558082D02*
X122447414Y-96558082D01*
X122447414Y-96558082D02*
X122523604Y-96596178D01*
X122523604Y-96596178D02*
X122561700Y-96634273D01*
X122561700Y-96634273D02*
X122599795Y-96710463D01*
X122599795Y-96710463D02*
X122599795Y-97015225D01*
X122599795Y-97015225D02*
X121799795Y-97015225D01*
X121799795Y-97015225D02*
X121799795Y-96748559D01*
X121799795Y-96748559D02*
X121837890Y-96672368D01*
X121837890Y-96672368D02*
X121875985Y-96634273D01*
X121875985Y-96634273D02*
X121952176Y-96596178D01*
X121952176Y-96596178D02*
X122028366Y-96596178D01*
X122028366Y-96596178D02*
X122104557Y-96634273D01*
X122104557Y-96634273D02*
X122142652Y-96672368D01*
X122142652Y-96672368D02*
X122180747Y-96748559D01*
X122180747Y-96748559D02*
X122180747Y-97015225D01*
X122066461Y-95872368D02*
X122599795Y-95872368D01*
X121761700Y-96062844D02*
X122333128Y-96253321D01*
X122333128Y-96253321D02*
X122333128Y-95758082D01*
X137839795Y-97015225D02*
X137039795Y-97015225D01*
X137039795Y-97015225D02*
X137039795Y-96824749D01*
X137039795Y-96824749D02*
X137077890Y-96710463D01*
X137077890Y-96710463D02*
X137154080Y-96634273D01*
X137154080Y-96634273D02*
X137230271Y-96596178D01*
X137230271Y-96596178D02*
X137382652Y-96558082D01*
X137382652Y-96558082D02*
X137496938Y-96558082D01*
X137496938Y-96558082D02*
X137649319Y-96596178D01*
X137649319Y-96596178D02*
X137725509Y-96634273D01*
X137725509Y-96634273D02*
X137801700Y-96710463D01*
X137801700Y-96710463D02*
X137839795Y-96824749D01*
X137839795Y-96824749D02*
X137839795Y-97015225D01*
X137839795Y-95796178D02*
X137839795Y-96253321D01*
X137839795Y-96024749D02*
X137039795Y-96024749D01*
X137039795Y-96024749D02*
X137154080Y-96100940D01*
X137154080Y-96100940D02*
X137230271Y-96177130D01*
X137230271Y-96177130D02*
X137268366Y-96253321D01*
X129800747Y-85769416D02*
X129800747Y-86036082D01*
X130219795Y-86036082D02*
X129419795Y-86036082D01*
X129419795Y-86036082D02*
X129419795Y-85655130D01*
X129419795Y-85426559D02*
X129419795Y-84893225D01*
X129419795Y-84893225D02*
X130219795Y-85236083D01*
X147580747Y-85826559D02*
X147618842Y-85712273D01*
X147618842Y-85712273D02*
X147656938Y-85674178D01*
X147656938Y-85674178D02*
X147733128Y-85636082D01*
X147733128Y-85636082D02*
X147847414Y-85636082D01*
X147847414Y-85636082D02*
X147923604Y-85674178D01*
X147923604Y-85674178D02*
X147961700Y-85712273D01*
X147961700Y-85712273D02*
X147999795Y-85788463D01*
X147999795Y-85788463D02*
X147999795Y-86093225D01*
X147999795Y-86093225D02*
X147199795Y-86093225D01*
X147199795Y-86093225D02*
X147199795Y-85826559D01*
X147199795Y-85826559D02*
X147237890Y-85750368D01*
X147237890Y-85750368D02*
X147275985Y-85712273D01*
X147275985Y-85712273D02*
X147352176Y-85674178D01*
X147352176Y-85674178D02*
X147428366Y-85674178D01*
X147428366Y-85674178D02*
X147504557Y-85712273D01*
X147504557Y-85712273D02*
X147542652Y-85750368D01*
X147542652Y-85750368D02*
X147580747Y-85826559D01*
X147580747Y-85826559D02*
X147580747Y-86093225D01*
X147199795Y-85140844D02*
X147199795Y-85064654D01*
X147199795Y-85064654D02*
X147237890Y-84988463D01*
X147237890Y-84988463D02*
X147275985Y-84950368D01*
X147275985Y-84950368D02*
X147352176Y-84912273D01*
X147352176Y-84912273D02*
X147504557Y-84874178D01*
X147504557Y-84874178D02*
X147695033Y-84874178D01*
X147695033Y-84874178D02*
X147847414Y-84912273D01*
X147847414Y-84912273D02*
X147923604Y-84950368D01*
X147923604Y-84950368D02*
X147961700Y-84988463D01*
X147961700Y-84988463D02*
X147999795Y-85064654D01*
X147999795Y-85064654D02*
X147999795Y-85140844D01*
X147999795Y-85140844D02*
X147961700Y-85217035D01*
X147961700Y-85217035D02*
X147923604Y-85255130D01*
X147923604Y-85255130D02*
X147847414Y-85293225D01*
X147847414Y-85293225D02*
X147695033Y-85331321D01*
X147695033Y-85331321D02*
X147504557Y-85331321D01*
X147504557Y-85331321D02*
X147352176Y-85293225D01*
X147352176Y-85293225D02*
X147275985Y-85255130D01*
X147275985Y-85255130D02*
X147237890Y-85217035D01*
X147237890Y-85217035D02*
X147199795Y-85140844D01*
D13*
X133410000Y-131164000D02*
X133410000Y-131320000D01*
X133410000Y-133480000D02*
X133410000Y-133636000D01*
X133410000Y-131164484D02*
G75*
G02*
X136642335Y-131321392I1560000J-1235516D01*
G01*
X133929039Y-131320000D02*
G75*
G02*
X136011130Y-131320163I1040961J-1080000D01*
G01*
X136011130Y-133479837D02*
G75*
G02*
X133929039Y-133480000I-1041130J1079837D01*
G01*
X136642335Y-133478608D02*
G75*
G02*
X133410000Y-133635516I-1672335J1078608D01*
G01*
X143410000Y-131164000D02*
X143410000Y-131320000D01*
X143410000Y-133480000D02*
X143410000Y-133636000D01*
X143410000Y-131164484D02*
G75*
G02*
X146642335Y-131321392I1560000J-1235516D01*
G01*
X143929039Y-131320000D02*
G75*
G02*
X146011130Y-131320163I1040961J-1080000D01*
G01*
X146011130Y-133479837D02*
G75*
G02*
X143929039Y-133480000I-1041130J1079837D01*
G01*
X146642335Y-133478608D02*
G75*
G02*
X143410000Y-133635516I-1672335J1078608D01*
G01*
X153410000Y-131164000D02*
X153410000Y-131320000D01*
X153410000Y-133480000D02*
X153410000Y-133636000D01*
X153410000Y-131164484D02*
G75*
G02*
X156642335Y-131321392I1560000J-1235516D01*
G01*
X153929039Y-131320000D02*
G75*
G02*
X156011130Y-131320163I1040961J-1080000D01*
G01*
X156011130Y-133479837D02*
G75*
G02*
X153929039Y-133480000I-1041130J1079837D01*
G01*
X156642335Y-133478608D02*
G75*
G02*
X153410000Y-133635516I-1672335J1078608D01*
G01*
D14*
G36*
X178138009Y-79191690D02*
G01*
X178189390Y-79224839D01*
X178220452Y-79276137D01*
X178315735Y-79613784D01*
X178310521Y-79994836D01*
X178216588Y-80383667D01*
X178045711Y-80744655D01*
X177809664Y-81042173D01*
X177580874Y-81211055D01*
X177163812Y-81364032D01*
X176724461Y-81401094D01*
X176297292Y-81323687D01*
X175928807Y-81141731D01*
X175620344Y-80848878D01*
X175370307Y-80447623D01*
X175313425Y-80319806D01*
X175232149Y-80122125D01*
X175847990Y-79864778D01*
X176173492Y-79738903D01*
X176575602Y-79598326D01*
X176997867Y-79462164D01*
X177307191Y-79370676D01*
X177654895Y-79274409D01*
X177893864Y-79214084D01*
X178047201Y-79187308D01*
X178138009Y-79191690D01*
G37*
G36*
X167498162Y-77307524D02*
G01*
X167659297Y-77414713D01*
X167885267Y-77571422D01*
X168153052Y-77761922D01*
X168182064Y-77782820D01*
X168530602Y-78041600D01*
X168866540Y-78304569D01*
X169172678Y-78556829D01*
X169431820Y-78783479D01*
X169626765Y-78969621D01*
X169740315Y-79100354D01*
X169762056Y-79151583D01*
X169673168Y-79331483D01*
X169487616Y-79524707D01*
X169240117Y-79704698D01*
X168965384Y-79844902D01*
X168777586Y-79904675D01*
X168340753Y-79935070D01*
X167915576Y-79834206D01*
X167523459Y-79607777D01*
X167457440Y-79553606D01*
X167167227Y-79218569D01*
X166988241Y-78826082D01*
X166924038Y-78403187D01*
X166978174Y-77976923D01*
X167154207Y-77574329D01*
X167189900Y-77519763D01*
X167307470Y-77365450D01*
X167399079Y-77275604D01*
X167424884Y-77265579D01*
X167498162Y-77307524D01*
G37*
G36*
X173642078Y-62917240D02*
G01*
X174446224Y-62986844D01*
X175263302Y-63094394D01*
X176055184Y-63235415D01*
X176783737Y-63405433D01*
X177022800Y-63472766D01*
X177711601Y-63687646D01*
X178341270Y-63904667D01*
X178888333Y-64115191D01*
X179329323Y-64310582D01*
X179412117Y-64351879D01*
X179654590Y-64474903D01*
X179886215Y-64590568D01*
X179988555Y-64640725D01*
X180167546Y-64734569D01*
X180396354Y-64868644D01*
X180693560Y-65054373D01*
X181077750Y-65303181D01*
X181246363Y-65413976D01*
X181487176Y-65570418D01*
X181714537Y-65714365D01*
X181865640Y-65806525D01*
X182020420Y-65916077D01*
X182229041Y-66087979D01*
X182448851Y-66286909D01*
X182469312Y-66306455D01*
X182684595Y-66508260D01*
X182887818Y-66690363D01*
X183038161Y-66816274D01*
X183048787Y-66824424D01*
X183223719Y-66976156D01*
X183402665Y-67159019D01*
X183422964Y-67182154D01*
X183588118Y-67366184D01*
X183784881Y-67575418D01*
X183857305Y-67649894D01*
X184029132Y-67843814D01*
X184255027Y-68127086D01*
X184518513Y-68476200D01*
X184803117Y-68867648D01*
X185092365Y-69277921D01*
X185369783Y-69683511D01*
X185618895Y-70060907D01*
X185823228Y-70386603D01*
X185966308Y-70637090D01*
X186003177Y-70712013D01*
X186148416Y-71028599D01*
X186317404Y-71392184D01*
X186474455Y-71725999D01*
X186479722Y-71737094D01*
X186610917Y-72043698D01*
X186760657Y-72441755D01*
X186916020Y-72891668D01*
X187064083Y-73353838D01*
X187191924Y-73788668D01*
X187286621Y-74156554D01*
X187318061Y-74306019D01*
X187421243Y-74876368D01*
X187495768Y-75322748D01*
X187543191Y-75655117D01*
X187565073Y-75883438D01*
X187565124Y-75884390D01*
X187586130Y-76236406D01*
X187616891Y-76679209D01*
X187641819Y-77013235D01*
X187651926Y-77242736D01*
X187655379Y-77539723D01*
X187652237Y-77799284D01*
X187638681Y-77929823D01*
X187602267Y-78186607D01*
X187544406Y-78561647D01*
X187466506Y-79046953D01*
X187369978Y-79634536D01*
X187256233Y-80316409D01*
X187126679Y-81084580D01*
X186982726Y-81931062D01*
X186825783Y-82847865D01*
X186657263Y-83827000D01*
X186478573Y-84860477D01*
X186291125Y-85940308D01*
X186096325Y-87058503D01*
X185895588Y-88207075D01*
X185690321Y-89378032D01*
X185481933Y-90563388D01*
X185271835Y-91755150D01*
X185061437Y-92945332D01*
X184852150Y-94125943D01*
X184645381Y-95288995D01*
X184442542Y-96426499D01*
X184245042Y-97530465D01*
X184054292Y-98592904D01*
X183871699Y-99605828D01*
X183698677Y-100561247D01*
X183536631Y-101451172D01*
X183386977Y-102267614D01*
X183251119Y-103002582D01*
X183130470Y-103648090D01*
X183026439Y-104196147D01*
X182940435Y-104638766D01*
X182873869Y-104967954D01*
X182828151Y-105175725D01*
X182808599Y-105246532D01*
X182701206Y-105529424D01*
X182592627Y-105822439D01*
X182540685Y-105966076D01*
X182431482Y-106233766D01*
X182300193Y-106505197D01*
X182259690Y-106578751D01*
X182153997Y-106784188D01*
X182080850Y-106966760D01*
X182066946Y-107019798D01*
X182015009Y-107165500D01*
X181912950Y-107369166D01*
X181835230Y-107501747D01*
X181673034Y-107761888D01*
X181500345Y-108039054D01*
X181436584Y-108141453D01*
X181047713Y-108728826D01*
X180606867Y-109331174D01*
X180136899Y-109920969D01*
X179660662Y-110470677D01*
X179201007Y-110952774D01*
X178783987Y-111337033D01*
X178436363Y-111627170D01*
X178091899Y-111910151D01*
X177774279Y-112166879D01*
X177507187Y-112378261D01*
X177314305Y-112525203D01*
X177276462Y-112552451D01*
X177076147Y-112687038D01*
X176834879Y-112839751D01*
X176581904Y-112993312D01*
X176346469Y-113130441D01*
X176157823Y-113233856D01*
X176045211Y-113286275D01*
X176029223Y-113289385D01*
X175949299Y-113320435D01*
X175790403Y-113408606D01*
X175595626Y-113529294D01*
X175310738Y-113688742D01*
X174987402Y-113834122D01*
X174793625Y-113903025D01*
X174553843Y-113984863D01*
X174356382Y-114069128D01*
X174259634Y-114126395D01*
X174107828Y-114211440D01*
X173844060Y-114313401D01*
X173491783Y-114426506D01*
X173074447Y-114544986D01*
X172615502Y-114663072D01*
X172138397Y-114774989D01*
X171666584Y-114874971D01*
X171223514Y-114957245D01*
X170832636Y-115016043D01*
X170525803Y-115045172D01*
X170276838Y-115059452D01*
X170004970Y-115076990D01*
X169962005Y-115079977D01*
X169168653Y-115109945D01*
X168476534Y-115103706D01*
X168267543Y-115089781D01*
X167968914Y-115058426D01*
X167602399Y-115013012D01*
X167189748Y-114956903D01*
X166752711Y-114893469D01*
X166313037Y-114826076D01*
X165892479Y-114758092D01*
X165512787Y-114692885D01*
X165195708Y-114633820D01*
X164962996Y-114584268D01*
X164836401Y-114547594D01*
X164820613Y-114537692D01*
X164736547Y-114488363D01*
X164558745Y-114419525D01*
X164334543Y-114348732D01*
X163915606Y-114224794D01*
X163560600Y-114108548D01*
X163236483Y-113986001D01*
X162910217Y-113843162D01*
X162548762Y-113666038D01*
X162119074Y-113440636D01*
X161858626Y-113300205D01*
X161465979Y-113085169D01*
X161158068Y-112909692D01*
X160897654Y-112750305D01*
X160647496Y-112583545D01*
X160370354Y-112385943D01*
X160147367Y-112221900D01*
X159662340Y-111837112D01*
X159132349Y-111372906D01*
X158591630Y-110862018D01*
X158074408Y-110337186D01*
X157614918Y-109831149D01*
X157476549Y-109667535D01*
X156905027Y-108905054D01*
X156359030Y-108039335D01*
X155855029Y-107104140D01*
X155409495Y-106133234D01*
X155038900Y-105160372D01*
X154759714Y-104219321D01*
X154704465Y-103985522D01*
X154631454Y-103627389D01*
X154556502Y-103207501D01*
X154484592Y-102759858D01*
X154420706Y-102318458D01*
X154369826Y-101917305D01*
X154336934Y-101590400D01*
X154326983Y-101409485D01*
X154320185Y-101122791D01*
X154309813Y-100827392D01*
X154306045Y-100743570D01*
X154298357Y-100497541D01*
X154294622Y-100192622D01*
X154295032Y-99991152D01*
X154849975Y-99991152D01*
X154878163Y-101331948D01*
X155007906Y-102597641D01*
X155243316Y-103809853D01*
X155588506Y-104990206D01*
X156004597Y-106062023D01*
X156625369Y-107328490D01*
X157351154Y-108507965D01*
X158178370Y-109596908D01*
X159103437Y-110591780D01*
X160122777Y-111489039D01*
X161232805Y-112285147D01*
X162429944Y-112976564D01*
X163503252Y-113475117D01*
X163855606Y-113617600D01*
X164215969Y-113755956D01*
X164535142Y-113871646D01*
X164712509Y-113930717D01*
X165068443Y-114027367D01*
X165525968Y-114130494D01*
X166050313Y-114234201D01*
X166606704Y-114332593D01*
X167160371Y-114419771D01*
X167676538Y-114489842D01*
X168120433Y-114536906D01*
X168385575Y-114553578D01*
X169806575Y-114535692D01*
X171189116Y-114386286D01*
X172531798Y-114105763D01*
X173833221Y-113694524D01*
X175091987Y-113152971D01*
X176306698Y-112481505D01*
X176866447Y-112118119D01*
X177961337Y-111289769D01*
X178966708Y-110360603D01*
X179875811Y-109339349D01*
X180681894Y-108234737D01*
X181378208Y-107055497D01*
X181958003Y-105810357D01*
X182167563Y-105263125D01*
X182268208Y-104975434D01*
X182362734Y-104687182D01*
X182453425Y-104387642D01*
X182542576Y-104066092D01*
X182632474Y-103711805D01*
X182725402Y-103314057D01*
X182823661Y-102862122D01*
X182929531Y-102345276D01*
X183045304Y-101752793D01*
X183173270Y-101073949D01*
X183315717Y-100298019D01*
X183474935Y-99414279D01*
X183653214Y-98412001D01*
X183764984Y-97779323D01*
X184656065Y-92725758D01*
X184121291Y-92101793D01*
X183586516Y-91477829D01*
X183354669Y-91663094D01*
X183187564Y-91801101D01*
X182963890Y-91991619D01*
X182729416Y-92195627D01*
X182708063Y-92214449D01*
X182501923Y-92394114D01*
X182371601Y-92493539D01*
X182290080Y-92523451D01*
X182230335Y-92494574D01*
X182172690Y-92426978D01*
X182073660Y-92304662D01*
X181914803Y-92112451D01*
X181725019Y-91885236D01*
X181657536Y-91804967D01*
X181468565Y-91583215D01*
X181343213Y-91450782D01*
X181257133Y-91391577D01*
X181185976Y-91389505D01*
X181105392Y-91428475D01*
X181096080Y-91433891D01*
X180978023Y-91505699D01*
X180770846Y-91634612D01*
X180501203Y-91803938D01*
X180195749Y-91996988D01*
X180112888Y-92049557D01*
X179296612Y-92567848D01*
X178711942Y-91690018D01*
X178127274Y-90812189D01*
X176731390Y-91217333D01*
X176313491Y-91337241D01*
X175939111Y-91442034D01*
X175628654Y-91526216D01*
X175402524Y-91584291D01*
X175281123Y-91610761D01*
X175267708Y-91611654D01*
X175203066Y-91558096D01*
X175066338Y-91416431D01*
X174873354Y-91204008D01*
X174639943Y-90938179D01*
X174435490Y-90699601D01*
X174183685Y-90404579D01*
X173962874Y-90149380D01*
X173788121Y-89951135D01*
X173674497Y-89826971D01*
X173637627Y-89792471D01*
X173569146Y-89821182D01*
X173399617Y-89904511D01*
X173149032Y-90032279D01*
X172837381Y-90194302D01*
X172525450Y-90358752D01*
X171446721Y-90930931D01*
X171089841Y-90688923D01*
X170910727Y-90568465D01*
X170645238Y-90391201D01*
X170321611Y-90175929D01*
X169968084Y-89941437D01*
X169734072Y-89786584D01*
X168735184Y-89126251D01*
X167887134Y-89756894D01*
X167039085Y-90387538D01*
X166736239Y-89925380D01*
X166561615Y-89658292D01*
X166388392Y-89392353D01*
X166252499Y-89182731D01*
X166246404Y-89173283D01*
X166059416Y-88883344D01*
X165061557Y-89293790D01*
X164063698Y-89704235D01*
X163076755Y-88588646D01*
X162750174Y-88221059D01*
X162500382Y-87945227D01*
X162314303Y-87749103D01*
X162178861Y-87620644D01*
X162080975Y-87547802D01*
X162007571Y-87518534D01*
X161945570Y-87520794D01*
X161923964Y-87526862D01*
X161792877Y-87577101D01*
X161561142Y-87673541D01*
X161253063Y-87805484D01*
X160892944Y-87962239D01*
X160505089Y-88133103D01*
X160113802Y-88307380D01*
X159743388Y-88474375D01*
X159418150Y-88623391D01*
X159199528Y-88725944D01*
X158681420Y-88973050D01*
X158466118Y-88734334D01*
X158344454Y-88604964D01*
X158154398Y-88409082D01*
X157920736Y-88171582D01*
X157668257Y-87917355D01*
X157421745Y-87671296D01*
X157205990Y-87458290D01*
X157045775Y-87303236D01*
X156984956Y-87246898D01*
X156967511Y-87253743D01*
X156944266Y-87305799D01*
X156913825Y-87410512D01*
X156874797Y-87575326D01*
X156825786Y-87807685D01*
X156765395Y-88115036D01*
X156692233Y-88504820D01*
X156604905Y-88984485D01*
X156502016Y-89561474D01*
X156382170Y-90243232D01*
X156243977Y-91037203D01*
X156086038Y-91950832D01*
X155906960Y-92991564D01*
X155884816Y-93120504D01*
X155706741Y-94158229D01*
X155550599Y-95070375D01*
X155414927Y-95866651D01*
X155298263Y-96556766D01*
X155199143Y-97150429D01*
X155116107Y-97657351D01*
X155047692Y-98087240D01*
X154992433Y-98449807D01*
X154948870Y-98754761D01*
X154915540Y-99011810D01*
X154890981Y-99230666D01*
X154873731Y-99421037D01*
X154862326Y-99592633D01*
X154855305Y-99755163D01*
X154851204Y-99918338D01*
X154849975Y-99991152D01*
X154295032Y-99991152D01*
X154295065Y-99974850D01*
X154307613Y-99850275D01*
X154343153Y-99598714D01*
X154400250Y-99228286D01*
X154477477Y-98747112D01*
X154573395Y-98163313D01*
X154686573Y-97485008D01*
X154815578Y-96720318D01*
X154958978Y-95877364D01*
X155115340Y-94964266D01*
X155283233Y-93989144D01*
X155461221Y-92960119D01*
X155647872Y-91885312D01*
X155841754Y-90772841D01*
X156041433Y-89630828D01*
X156067049Y-89484778D01*
X156245479Y-88467396D01*
X156452457Y-87290662D01*
X156615683Y-86365293D01*
X157058029Y-86365293D01*
X157544042Y-86870458D01*
X157751556Y-87083151D01*
X157924399Y-87254712D01*
X158040321Y-87363381D01*
X158075453Y-87390304D01*
X158094004Y-87326485D01*
X158134976Y-87136962D01*
X158196585Y-86831174D01*
X158277052Y-86418565D01*
X158374597Y-85908575D01*
X158487438Y-85310650D01*
X158613793Y-84634228D01*
X158751883Y-83888753D01*
X158899928Y-83083665D01*
X158934186Y-82896108D01*
X167016251Y-82896108D01*
X167073600Y-82916447D01*
X167229182Y-82845889D01*
X167262280Y-82826253D01*
X167501353Y-82694677D01*
X167678681Y-82647985D01*
X167829852Y-82694535D01*
X167990459Y-82842687D01*
X168144695Y-83033534D01*
X168672006Y-83612312D01*
X169306631Y-84123802D01*
X169884071Y-84476486D01*
X170160719Y-84618028D01*
X170408605Y-84725894D01*
X170669023Y-84814110D01*
X170983267Y-84896710D01*
X171382268Y-84985520D01*
X171792095Y-85065128D01*
X172179048Y-85126680D01*
X172504174Y-85164597D01*
X172698891Y-85174123D01*
X173108456Y-85169937D01*
X173504233Y-85691260D01*
X173680522Y-85913100D01*
X173830300Y-86082520D01*
X173932579Y-86176736D01*
X173961790Y-86187974D01*
X174027199Y-86119647D01*
X174134093Y-85967366D01*
X174234788Y-85804980D01*
X174364335Y-85547437D01*
X174466833Y-85276862D01*
X174503376Y-85135348D01*
X174547199Y-84947102D01*
X174616125Y-84833644D01*
X174749491Y-84749580D01*
X174890279Y-84688822D01*
X175134700Y-84574916D01*
X175418367Y-84423483D01*
X175604954Y-84313269D01*
X175811686Y-84192157D01*
X175976198Y-84110072D01*
X176059487Y-84085235D01*
X176140741Y-84139095D01*
X176278209Y-84265434D01*
X176396642Y-84388201D01*
X176562708Y-84549315D01*
X176656344Y-84593978D01*
X176677008Y-84522480D01*
X176624148Y-84335106D01*
X176603280Y-84280103D01*
X176429458Y-84016445D01*
X176151151Y-83815638D01*
X175793423Y-83695069D01*
X175748280Y-83687126D01*
X175419562Y-83634467D01*
X175620435Y-83751718D01*
X175785618Y-83858397D01*
X175838443Y-83937969D01*
X175773921Y-84014456D01*
X175587070Y-84111882D01*
X175541333Y-84132916D01*
X174847353Y-84381907D01*
X174078063Y-84538443D01*
X173258222Y-84604073D01*
X172412584Y-84580349D01*
X171565910Y-84468821D01*
X170742954Y-84271040D01*
X169968476Y-83988558D01*
X169491351Y-83753965D01*
X169164335Y-83559420D01*
X168841297Y-83342389D01*
X168542560Y-83119446D01*
X168288441Y-82907159D01*
X168099265Y-82722098D01*
X167995350Y-82580834D01*
X167982447Y-82523611D01*
X168050205Y-82479953D01*
X168199291Y-82456220D01*
X168203486Y-82456033D01*
X168374866Y-82426251D01*
X168416575Y-82371087D01*
X168326996Y-82312338D01*
X168216124Y-82285524D01*
X167909431Y-82284128D01*
X167590676Y-82363470D01*
X167316380Y-82505640D01*
X167202725Y-82606631D01*
X167058752Y-82790845D01*
X167016251Y-82896108D01*
X158934186Y-82896108D01*
X159056144Y-82228408D01*
X159185554Y-81515345D01*
X159218751Y-81332423D01*
X159235344Y-81240674D01*
X159435662Y-80133291D01*
X159613845Y-79151298D01*
X159772143Y-78284979D01*
X159912805Y-77524607D01*
X160038080Y-76860462D01*
X160150219Y-76282824D01*
X160188560Y-76093161D01*
X164062503Y-76093161D01*
X164576910Y-76213029D01*
X164826776Y-76276660D01*
X165020500Y-76336117D01*
X165122411Y-76380211D01*
X165128457Y-76385938D01*
X165122104Y-76474118D01*
X165060734Y-76628943D01*
X165033507Y-76681763D01*
X164957393Y-76869580D01*
X164879644Y-77138800D01*
X164815850Y-77434612D01*
X164810399Y-77466158D01*
X164770226Y-78087636D01*
X164854372Y-78678615D01*
X165050988Y-79226211D01*
X165348228Y-79717531D01*
X165734246Y-80139686D01*
X166197195Y-80479784D01*
X166725229Y-80724936D01*
X167306500Y-80862250D01*
X167929163Y-80878835D01*
X167945531Y-80877561D01*
X168489012Y-80784960D01*
X169024679Y-80604434D01*
X169517723Y-80352601D01*
X169933338Y-80046074D01*
X170142723Y-79828742D01*
X170271815Y-79688035D01*
X170377035Y-79640338D01*
X170512178Y-79665437D01*
X170546471Y-79677044D01*
X170835794Y-79743466D01*
X171058331Y-79704363D01*
X171245179Y-79550497D01*
X171254881Y-79537440D01*
X173700919Y-79537440D01*
X173745445Y-79871636D01*
X173857663Y-80092220D01*
X173984793Y-80247026D01*
X174118882Y-80319773D01*
X174319106Y-80346278D01*
X174508459Y-80367090D01*
X174610476Y-80422203D01*
X174675113Y-80547350D01*
X174699494Y-80618369D01*
X174867648Y-80971229D01*
X175133073Y-81346262D01*
X175466270Y-81712903D01*
X175837746Y-82040589D01*
X176218005Y-82298756D01*
X176418011Y-82399102D01*
X176862377Y-82541485D01*
X177358206Y-82622141D01*
X177839086Y-82632190D01*
X178020407Y-82613255D01*
X178658249Y-82454811D01*
X179217846Y-82188690D01*
X179691175Y-81822146D01*
X180070213Y-81362437D01*
X180346935Y-80816819D01*
X180473914Y-80394530D01*
X180560482Y-79892234D01*
X180568313Y-79491231D01*
X180565097Y-79458916D01*
X180525289Y-79100517D01*
X180734344Y-79095738D01*
X180929230Y-79103783D01*
X181180046Y-79129644D01*
X181291057Y-79145367D01*
X181638717Y-79199776D01*
X181351421Y-79050114D01*
X180950097Y-78885271D01*
X180455828Y-78751623D01*
X179911148Y-78658093D01*
X179358589Y-78613600D01*
X179259980Y-78611469D01*
X178381288Y-78655076D01*
X177458685Y-78807395D01*
X176482845Y-79070577D01*
X175444443Y-79446774D01*
X175200186Y-79547652D01*
X174883207Y-79675315D01*
X174602457Y-79777230D01*
X174386822Y-79843674D01*
X174265185Y-79864916D01*
X174259897Y-79864290D01*
X174108393Y-79776056D01*
X173968982Y-79589084D01*
X173867712Y-79341225D01*
X173850391Y-79269276D01*
X173807592Y-79138456D01*
X173764504Y-79132579D01*
X173727910Y-79239475D01*
X173704595Y-79446971D01*
X173700919Y-79537440D01*
X171254881Y-79537440D01*
X171322509Y-79446426D01*
X171463037Y-79176624D01*
X171530762Y-78916396D01*
X171531254Y-78910745D01*
X171535988Y-78852980D01*
X171552212Y-78654921D01*
X171429989Y-78842493D01*
X171253495Y-79055929D01*
X171057243Y-79204848D01*
X170877515Y-79263580D01*
X170838446Y-79260996D01*
X170743646Y-79208085D01*
X170570451Y-79077930D01*
X170340123Y-78887733D01*
X170073921Y-78654693D01*
X169949619Y-78541836D01*
X169375807Y-78034284D01*
X168851174Y-77614505D01*
X168344004Y-77259342D01*
X167822577Y-76945636D01*
X167593305Y-76821518D01*
X166807682Y-76462636D01*
X166027283Y-76211622D01*
X165270266Y-76072824D01*
X164554793Y-76050593D01*
X164416773Y-76060656D01*
X164062503Y-76093161D01*
X160188560Y-76093161D01*
X160251469Y-75781967D01*
X160325702Y-75434262D01*
X160344082Y-75348173D01*
X160430305Y-74971718D01*
X160512389Y-74642880D01*
X160592581Y-74351936D01*
X160673132Y-74089167D01*
X160756293Y-73844850D01*
X160844311Y-73609262D01*
X160939435Y-73372682D01*
X161043915Y-73125387D01*
X161160001Y-72857657D01*
X161191692Y-72785038D01*
X161802775Y-71553323D01*
X162523949Y-70397259D01*
X163347213Y-69322540D01*
X164264572Y-68334854D01*
X165268026Y-67439893D01*
X166349578Y-66643349D01*
X166985464Y-66261018D01*
X181515254Y-66261018D01*
X181543097Y-66300782D01*
X181582860Y-66272939D01*
X181555017Y-66233176D01*
X181515254Y-66261018D01*
X166985464Y-66261018D01*
X167137555Y-66169572D01*
X181391963Y-66169572D01*
X181419806Y-66209334D01*
X181459569Y-66181492D01*
X181431726Y-66141729D01*
X181391963Y-66169572D01*
X167137555Y-66169572D01*
X167501229Y-65950910D01*
X168714985Y-65368269D01*
X169982846Y-64901115D01*
X171296811Y-64555142D01*
X171580254Y-64509209D01*
X171786257Y-64475826D01*
X172648890Y-64336037D01*
X173130067Y-64290343D01*
X174489270Y-64251558D01*
X175849319Y-64343206D01*
X177194302Y-64562169D01*
X178508304Y-64905322D01*
X179775409Y-65369548D01*
X180611382Y-65757469D01*
X180866249Y-65886663D01*
X181083350Y-65996644D01*
X181226386Y-66069023D01*
X181251305Y-66081602D01*
X181305693Y-66100252D01*
X181266084Y-66057138D01*
X181152471Y-65967023D01*
X180984846Y-65844667D01*
X180783206Y-65704842D01*
X180567545Y-65562303D01*
X180433657Y-65477867D01*
X179918938Y-65183553D01*
X179314761Y-64876325D01*
X178664748Y-64577032D01*
X178012525Y-64306525D01*
X177861884Y-64248722D01*
X177400190Y-64094590D01*
X176839396Y-63938912D01*
X176217370Y-63789667D01*
X175571979Y-63654833D01*
X174941090Y-63542384D01*
X174362570Y-63460304D01*
X173925505Y-63419440D01*
X172507633Y-63397452D01*
X171123682Y-63508089D01*
X169768721Y-63752302D01*
X168437815Y-64131051D01*
X167126035Y-64645286D01*
X166789918Y-64800147D01*
X166351461Y-65028090D01*
X165844713Y-65323623D01*
X165304565Y-65663759D01*
X164765902Y-66025512D01*
X164263622Y-66385895D01*
X163832611Y-66721922D01*
X163690786Y-66841915D01*
X162731456Y-67767699D01*
X161859888Y-68792451D01*
X161083872Y-69903546D01*
X160411197Y-71088347D01*
X159849650Y-72334226D01*
X159407022Y-73628550D01*
X159326008Y-73919928D01*
X159276948Y-74127865D01*
X159206515Y-74461932D01*
X159116432Y-74912919D01*
X159008426Y-75471616D01*
X158884223Y-76128816D01*
X158745546Y-76875306D01*
X158594121Y-77701876D01*
X158431675Y-78599319D01*
X158259931Y-79558423D01*
X158085537Y-80542081D01*
X157058029Y-86365293D01*
X156615683Y-86365293D01*
X156629026Y-86289648D01*
X156660934Y-86108746D01*
X156869478Y-84929770D01*
X157076656Y-83761855D01*
X157281035Y-82613121D01*
X157481183Y-81491687D01*
X157675666Y-80405674D01*
X157863053Y-79363205D01*
X158041909Y-78372396D01*
X158210802Y-77441369D01*
X158368299Y-76578246D01*
X158512969Y-75791149D01*
X158643377Y-75088193D01*
X158758091Y-74477502D01*
X158855677Y-73967197D01*
X158934706Y-73565395D01*
X158993741Y-73280220D01*
X159031352Y-73119791D01*
X159036587Y-73102111D01*
X159266491Y-72428234D01*
X159483061Y-71870487D01*
X159573152Y-71663154D01*
X159682873Y-71415797D01*
X159792486Y-71163026D01*
X159799965Y-71145486D01*
X159932680Y-70861428D01*
X160111009Y-70517138D01*
X160312262Y-70152995D01*
X160513750Y-69809379D01*
X160692781Y-69526669D01*
X160776354Y-69407895D01*
X160906890Y-69223906D01*
X160997284Y-69077738D01*
X161022714Y-69019755D01*
X161070829Y-68936159D01*
X161189431Y-68773282D01*
X161358873Y-68555412D01*
X161559508Y-68306839D01*
X161771691Y-68051847D01*
X161975773Y-67814728D01*
X162152109Y-67619769D01*
X162173048Y-67597656D01*
X162511462Y-67245059D01*
X162776713Y-66974264D01*
X162988405Y-66765850D01*
X163166143Y-66600412D01*
X163287119Y-66494423D01*
X163507741Y-66314519D01*
X163794011Y-66093304D01*
X164122913Y-65847279D01*
X164471431Y-65592941D01*
X164816550Y-65346785D01*
X165135249Y-65125310D01*
X165404515Y-64945011D01*
X165601331Y-64822388D01*
X165673184Y-64784209D01*
X165893375Y-64679717D01*
X166155282Y-64549227D01*
X166283982Y-64482859D01*
X166807597Y-64228618D01*
X167396757Y-63976125D01*
X168014353Y-63738891D01*
X168623275Y-63530427D01*
X169186418Y-63364240D01*
X169652646Y-63256434D01*
X170064637Y-63182267D01*
X170487585Y-63110754D01*
X170891153Y-63046585D01*
X171245006Y-62994452D01*
X171518806Y-62959046D01*
X171661084Y-62945850D01*
X171910010Y-62931109D01*
X172181906Y-62912896D01*
X172225108Y-62909766D01*
X172888996Y-62890055D01*
X173642078Y-62917240D01*
G37*
D15*
X118427500Y-82073750D02*
X118427500Y-99853750D01*
X118427500Y-99853750D02*
X151447500Y-99853750D01*
X146367500Y-97313750D02*
X148907500Y-97313750D01*
X146367500Y-99853750D02*
X146367500Y-97313750D01*
X148907500Y-99853750D02*
X148907500Y-97313750D01*
X151447500Y-82073750D02*
X118427500Y-82073750D01*
X151447500Y-99853750D02*
X151447500Y-82073750D01*
D12*
X142418470Y-85119115D02*
X142218470Y-85119115D01*
X142218470Y-85019115D01*
X142418470Y-85019115D01*
X142418470Y-85119115D01*
G36*
X142418470Y-85119115D02*
G01*
X142218470Y-85119115D01*
X142218470Y-85019115D01*
X142418470Y-85019115D01*
X142418470Y-85119115D01*
G37*
X142618470Y-84919115D02*
X142518470Y-84919115D01*
X142518470Y-84819115D01*
X142618470Y-84819115D01*
X142618470Y-84919115D01*
G36*
X142618470Y-84919115D02*
G01*
X142518470Y-84919115D01*
X142518470Y-84819115D01*
X142618470Y-84819115D01*
X142618470Y-84919115D01*
G37*
X143018470Y-84719115D02*
X142218470Y-84719115D01*
X142218470Y-84619115D01*
X143018470Y-84619115D01*
X143018470Y-84719115D01*
G36*
X143018470Y-84719115D02*
G01*
X142218470Y-84719115D01*
X142218470Y-84619115D01*
X143018470Y-84619115D01*
X143018470Y-84719115D01*
G37*
X143018470Y-85119115D02*
X142718470Y-85119115D01*
X142718470Y-85019115D01*
X143018470Y-85019115D01*
X143018470Y-85119115D01*
G36*
X143018470Y-85119115D02*
G01*
X142718470Y-85119115D01*
X142718470Y-85019115D01*
X143018470Y-85019115D01*
X143018470Y-85119115D01*
G37*
X143018470Y-85119115D02*
X142918470Y-85119115D01*
X142918470Y-84619115D01*
X143018470Y-84619115D01*
X143018470Y-85119115D01*
G36*
X143018470Y-85119115D02*
G01*
X142918470Y-85119115D01*
X142918470Y-84619115D01*
X143018470Y-84619115D01*
X143018470Y-85119115D01*
G37*
D16*
X150177500Y-83343750D03*
X150177500Y-98583750D03*
D17*
X147637500Y-98583750D03*
D16*
X145097500Y-98583750D03*
X142557500Y-98583750D03*
X140017500Y-98583750D03*
X137477500Y-98583750D03*
X134937500Y-98583750D03*
X132397500Y-98583750D03*
X129857500Y-98583750D03*
X127317500Y-98583750D03*
X124777500Y-98583750D03*
X122237500Y-98583750D03*
X119697500Y-98583750D03*
X119697500Y-83343750D03*
X122237500Y-83343750D03*
X124777500Y-83343750D03*
X127317500Y-83343750D03*
X129857500Y-83343750D03*
X132397500Y-83343750D03*
X134937500Y-83343750D03*
X137477500Y-83343750D03*
X140017500Y-83343750D03*
X142557500Y-83343750D03*
X145097500Y-83343750D03*
X147637500Y-83343750D03*
X124777500Y-96043750D03*
X124777500Y-93503750D03*
X124777500Y-90963750D03*
%LPC*%
D18*
X140450000Y-55675000D03*
X133950000Y-55675000D03*
X140450000Y-60175000D03*
X133950000Y-60175000D03*
D19*
X133700000Y-132400000D03*
D20*
X136240000Y-132400000D03*
D19*
X143700000Y-132400000D03*
D20*
X146240000Y-132400000D03*
D19*
X153700000Y-132400000D03*
D20*
X156240000Y-132400000D03*
D21*
X150000000Y-106000000D03*
D16*
X150177500Y-83343750D03*
X150177500Y-98583750D03*
D22*
X192900000Y-55000000D03*
X190900000Y-56250000D03*
X192900000Y-57500000D03*
X190900000Y-58750000D03*
X192900000Y-60000000D03*
X190900000Y-61250000D03*
X192900000Y-62500000D03*
X190900000Y-63750000D03*
X192900000Y-65000000D03*
X190900000Y-66250000D03*
X192900000Y-67500000D03*
X190900000Y-68750000D03*
X192900000Y-70000000D03*
X107000000Y-70000000D03*
X109000000Y-68750000D03*
X107000000Y-67500000D03*
X109000000Y-66250000D03*
X107000000Y-65000000D03*
X109000000Y-63750000D03*
X107000000Y-62500000D03*
X109000000Y-61250000D03*
X107000000Y-60000000D03*
X109000000Y-58750000D03*
X107000000Y-57500000D03*
X109000000Y-56250000D03*
X107000000Y-55000000D03*
D23*
X198300000Y-103000000D03*
X194950000Y-103000000D03*
X193300000Y-104250000D03*
X198300000Y-105500000D03*
X194950000Y-105500000D03*
X193300000Y-106750000D03*
X198300000Y-108000000D03*
X194950000Y-108000000D03*
X193300000Y-109250000D03*
X198300000Y-110500000D03*
X194950000Y-110500000D03*
X193300000Y-111750000D03*
X198300000Y-113000000D03*
X194950000Y-113000000D03*
X193300000Y-114250000D03*
X198300000Y-115500000D03*
X194950000Y-115500000D03*
X193300000Y-116750000D03*
X198300000Y-118000000D03*
X194950000Y-118000000D03*
X101800000Y-118000000D03*
X105150000Y-118000000D03*
X106800000Y-116750000D03*
X101800000Y-115500000D03*
X105150000Y-115500000D03*
X106800000Y-114250000D03*
X101800000Y-113000000D03*
X105150000Y-113000000D03*
X106800000Y-111750000D03*
X101800000Y-110500000D03*
X105150000Y-110500000D03*
X106800000Y-109250000D03*
X101800000Y-108000000D03*
X105150000Y-108000000D03*
X106800000Y-106750000D03*
X101800000Y-105500000D03*
X105150000Y-105500000D03*
X106800000Y-104250000D03*
X101800000Y-103000000D03*
X105150000Y-103000000D03*
D24*
X173800000Y-129000000D03*
D25*
X176340000Y-129000000D03*
X178880000Y-129000000D03*
X181420000Y-129000000D03*
X183960000Y-129000000D03*
X186500000Y-129000000D03*
X189040000Y-129000000D03*
X191580000Y-129000000D03*
X194120000Y-129000000D03*
X196660000Y-129000000D03*
D24*
X126200000Y-129000000D03*
D25*
X123660000Y-129000000D03*
X121120000Y-129000000D03*
X118580000Y-129000000D03*
X116040000Y-129000000D03*
X113500000Y-129000000D03*
X110960000Y-129000000D03*
X108420000Y-129000000D03*
X105880000Y-129000000D03*
X103340000Y-129000000D03*
D26*
X150000000Y-74500000D03*
D27*
X109700000Y-97600000D03*
X190300000Y-97600000D03*
D28*
X154940000Y-125850000D03*
D29*
X154940000Y-128400000D03*
X154940000Y-120600000D03*
D28*
X154940000Y-123150000D03*
D30*
X178657000Y-126590000D03*
X179907000Y-124940000D03*
X181157000Y-126590000D03*
X182407000Y-124940000D03*
X183657000Y-126590000D03*
X184907000Y-124940000D03*
X186157000Y-126590000D03*
X187407000Y-124940000D03*
X188657000Y-126590000D03*
X189907000Y-124940000D03*
X191157000Y-126590000D03*
X192407000Y-124940000D03*
X193657000Y-126590000D03*
X106013000Y-126590000D03*
X107263000Y-124940000D03*
X108513000Y-126590000D03*
X109763000Y-124940000D03*
X111013000Y-126590000D03*
X112263000Y-124940000D03*
X113513000Y-126590000D03*
X114763000Y-124940000D03*
X116013000Y-126590000D03*
X117263000Y-124940000D03*
X118513000Y-126590000D03*
X119763000Y-124940000D03*
X121013000Y-126590000D03*
D17*
X147637500Y-98583750D03*
D16*
X145097500Y-98583750D03*
X142557500Y-98583750D03*
X140017500Y-98583750D03*
X137477500Y-98583750D03*
X134937500Y-98583750D03*
X132397500Y-98583750D03*
X129857500Y-98583750D03*
X127317500Y-98583750D03*
X124777500Y-98583750D03*
X122237500Y-98583750D03*
X119697500Y-98583750D03*
X119697500Y-83343750D03*
X122237500Y-83343750D03*
X124777500Y-83343750D03*
X127317500Y-83343750D03*
X129857500Y-83343750D03*
X132397500Y-83343750D03*
X134937500Y-83343750D03*
X137477500Y-83343750D03*
X140017500Y-83343750D03*
X142557500Y-83343750D03*
X145097500Y-83343750D03*
X147637500Y-83343750D03*
X124777500Y-96043750D03*
X124777500Y-93503750D03*
X124777500Y-90963750D03*
D28*
X145040000Y-125850000D03*
D29*
X145040000Y-128400000D03*
X145040000Y-120600000D03*
D28*
X145040000Y-123150000D03*
D18*
X150000000Y-60000000D03*
D31*
X167825000Y-128100000D03*
D18*
X165285000Y-128100000D03*
D31*
X172925000Y-60325000D03*
D18*
X170385000Y-60325000D03*
D28*
X135040000Y-125850000D03*
D29*
X135040000Y-128400000D03*
X135040000Y-120600000D03*
D28*
X135040000Y-123150000D03*
D32*
X135875000Y-76993750D03*
D33*
X133335000Y-76993750D03*
X130795000Y-76993750D03*
X128255000Y-76993750D03*
X125715000Y-76993750D03*
X123175000Y-76993750D03*
X120635000Y-76993750D03*
X118095000Y-76993750D03*
X118095000Y-69373750D03*
X120635000Y-69373750D03*
X123175000Y-69373750D03*
X125715000Y-69373750D03*
X128255000Y-69373750D03*
X130795000Y-69373750D03*
X133335000Y-69373750D03*
X135875000Y-69373750D03*
%LPD*%
M02*
