M48
; DRILL file {KiCad 9.0.7} date 2026-02-20T16:37:22+0100
; FORMAT={-:-/ absolute / metric / decimal}
; #@! TF.CreationDate,2026-02-20T16:37:22+01:00
; #@! TF.GenerationSoftware,Kicad,Pcbnew,9.0.7
; #@! TF.FileFunction,Plated,1,2,PTH
FMAT,2
METRIC
; #@! TA.AperFunction,Plated,PTH,ViaDrill
T1C0.300
; #@! TA.AperFunction,Plated,PTH,ViaDrill
T2C0.400
; #@! TA.AperFunction,Plated,PTH,ComponentDrill
T3C0.800
; #@! TA.AperFunction,Plated,PTH,ComponentDrill
T4C0.900
; #@! TA.AperFunction,Plated,PTH,ComponentDrill
T5C1.000
; #@! TA.AperFunction,Plated,PTH,ComponentDrill
T6C1.092
; #@! TA.AperFunction,Plated,PTH,ComponentDrill
T7C1.100
; #@! TA.AperFunction,Plated,PTH,ComponentDrill
T8C1.200
; #@! TA.AperFunction,Plated,PTH,ComponentDrill
T9C4.300
%
G90
G05
T1
X127.125Y-89.675
X128.675Y-104.0
X129.575Y-93.875
X133.387Y-72.862
X139.75Y-106.2
X144.5Y-102.1
X155.125Y-102.025
X159.6Y-107.475
X187.3Y-77.675
X187.675Y-78.85
T2
X101.757Y-72.009
X102.896Y-106.7
X109.093Y-112.141
X109.474Y-120.777
X110.625Y-109.475
X110.7Y-56.2
X110.744Y-120.075
X111.725Y-113.375
X112.089Y-53.161
X112.141Y-109.9
X112.866Y-110.725
X114.4Y-118.1
X115.061Y-111.242
X115.364Y-81.534
X115.85Y-113.776
X116.088Y-122.655
X116.364Y-81.534
X116.8Y-112.825
X117.364Y-81.534
X117.85Y-104.5
X118.364Y-81.534
X118.95Y-104.125
X119.507Y-81.534
X120.269Y-106.924
X121.269Y-106.924
X122.269Y-106.937
X123.269Y-106.933
X125.603Y-119.126
X127.127Y-66.775
X128.397Y-73.279
X131.064Y-91.059
X132.21Y-65.315
X133.604Y-91.821
X133.865Y-117.602
X134.315Y-118.618
X134.75Y-66.04
X136.144Y-92.71
X136.961Y-71.573
X147.701Y-89.789
X161.544Y-74.93
X162.814Y-54.102
X167.894Y-98.806
X177.546Y-117.856
X181.102Y-58.928
X188.214Y-64.85
X188.214Y-109.855
X188.467Y-108.843
X188.713Y-107.874
X188.849Y-113.792
X188.884Y-106.889
X189.426Y-115.1
X190.038Y-117.262
X193.3Y-121.846
X194.7Y-62.1
X194.8Y-67.0
X195.8Y-62.2
X196.05Y-122.57
X196.755Y-114.12
X196.85Y-121.031
T3
X101.8Y-103.0
X101.8Y-105.5
X101.8Y-108.0
X101.8Y-110.5
X101.8Y-113.0
X101.8Y-115.5
X101.8Y-118.0
X105.15Y-103.0
X105.15Y-105.5
X105.15Y-108.0
X105.15Y-110.5
X105.15Y-113.0
X105.15Y-115.5
X105.15Y-118.0
X106.013Y-126.59
X106.8Y-104.25
X106.8Y-106.75
X106.8Y-109.25
X106.8Y-111.75
X106.8Y-114.25
X106.8Y-116.75
X107.0Y-55.0
X107.0Y-57.5
X107.0Y-60.0
X107.0Y-62.5
X107.0Y-65.0
X107.0Y-67.5
X107.0Y-70.0
X107.263Y-124.94
X108.513Y-126.59
X109.0Y-56.25
X109.0Y-58.75
X109.0Y-61.25
X109.0Y-63.75
X109.0Y-66.25
X109.0Y-68.75
X109.763Y-124.94
X111.013Y-126.59
X112.263Y-124.94
X113.513Y-126.59
X114.763Y-124.94
X116.013Y-126.59
X117.263Y-124.94
X118.095Y-69.374
X118.095Y-76.994
X118.513Y-126.59
X119.763Y-124.94
X120.635Y-69.374
X120.635Y-76.994
X121.013Y-126.59
X123.175Y-69.374
X123.175Y-76.994
X125.715Y-69.374
X125.715Y-76.994
X128.255Y-69.374
X128.255Y-76.994
X130.795Y-69.374
X130.795Y-76.994
X133.335Y-69.374
X133.335Y-76.994
X135.875Y-69.374
X135.875Y-76.994
X178.657Y-126.59
X179.907Y-124.94
X181.157Y-126.59
X182.407Y-124.94
X183.657Y-126.59
X184.907Y-124.94
X186.157Y-126.59
X187.407Y-124.94
X188.657Y-126.59
X189.907Y-124.94
X190.9Y-56.25
X190.9Y-58.75
X190.9Y-61.25
X190.9Y-63.75
X190.9Y-66.25
X190.9Y-68.75
X191.157Y-126.59
X192.407Y-124.94
X192.9Y-55.0
X192.9Y-57.5
X192.9Y-60.0
X192.9Y-62.5
X192.9Y-65.0
X192.9Y-67.5
X192.9Y-70.0
X193.3Y-104.25
X193.3Y-106.75
X193.3Y-109.25
X193.3Y-111.75
X193.3Y-114.25
X193.3Y-116.75
X193.657Y-126.59
X194.95Y-103.0
X194.95Y-105.5
X194.95Y-108.0
X194.95Y-110.5
X194.95Y-113.0
X194.95Y-115.5
X194.95Y-118.0
X198.3Y-103.0
X198.3Y-105.5
X198.3Y-108.0
X198.3Y-110.5
X198.3Y-113.0
X198.3Y-115.5
X198.3Y-118.0
T4
X133.7Y-132.4
X136.24Y-132.4
X143.7Y-132.4
X146.24Y-132.4
X153.7Y-132.4
X156.24Y-132.4
T5
X103.34Y-129.0
X105.88Y-129.0
X108.42Y-129.0
X110.96Y-129.0
X113.5Y-129.0
X116.04Y-129.0
X118.58Y-129.0
X121.12Y-129.0
X123.66Y-129.0
X126.2Y-129.0
X135.04Y-120.6
X135.04Y-128.4
X145.04Y-120.6
X145.04Y-128.4
X154.94Y-120.6
X154.94Y-128.4
X173.8Y-129.0
X176.34Y-129.0
X178.88Y-129.0
X181.42Y-129.0
X183.96Y-129.0
X186.5Y-129.0
X189.04Y-129.0
X191.58Y-129.0
X194.12Y-129.0
X196.66Y-129.0
T6
X119.697Y-83.344
X119.697Y-98.584
X122.237Y-83.344
X122.237Y-98.584
X124.777Y-83.344
X124.777Y-90.964
X124.777Y-93.504
X124.777Y-96.044
X124.777Y-98.584
X127.317Y-83.344
X127.317Y-98.584
X129.857Y-83.344
X129.857Y-98.584
X132.398Y-83.344
X132.398Y-98.584
X134.938Y-83.344
X134.938Y-98.584
X137.477Y-83.344
X137.477Y-98.584
X140.017Y-83.344
X140.017Y-98.584
X142.558Y-83.344
X142.558Y-98.584
X145.097Y-83.344
X145.097Y-98.584
X147.637Y-83.344
X147.637Y-98.584
X150.177Y-83.344
X150.177Y-98.584
T7
X133.95Y-55.675
X133.95Y-60.175
X140.45Y-55.675
X140.45Y-60.175
T8
X165.285Y-128.1
X167.825Y-128.1
X170.385Y-60.325
X172.925Y-60.325
T9
X150.0Y-106.0
M30
