G04 #@! TF.GenerationSoftware,KiCad,Pcbnew,9.0.7*
G04 #@! TF.CreationDate,2026-02-20T16:37:27+01:00*
G04 #@! TF.ProjectId,nice_pillz,6e696365-5f70-4696-9c6c-7a2e6b696361,rev?*
G04 #@! TF.SameCoordinates,Original*
G04 #@! TF.FileFunction,Soldermask,Top*
G04 #@! TF.FilePolarity,Negative*
%FSLAX46Y46*%
G04 Gerber Fmt 4.6, Leading zero omitted, Abs format (unit mm)*
G04 Created by KiCad (PCBNEW 9.0.7) date 2026-02-20 16:37:27*
%MOMM*%
%LPD*%
G01*
G04 APERTURE LIST*
G04 Aperture macros list*
%AMRoundRect*
0 Rectangle with rounded corners*
0 $1 Rounding radius*
0 $2 $3 $4 $5 $6 $7 $8 $9 X,Y pos of 4 corners*
0 Add a 4 corners polygon primitive as box body*
4,1,4,$2,$3,$4,$5,$6,$7,$8,$9,$2,$3,0*
0 Add four circle primitives for the rounded corners*
1,1,$1+$1,$2,$3*
1,1,$1+$1,$4,$5*
1,1,$1+$1,$6,$7*
1,1,$1+$1,$8,$9*
0 Add four rect primitives between the rounded corners*
20,1,$1+$1,$2,$3,$4,$5,0*
20,1,$1+$1,$4,$5,$6,$7,0*
20,1,$1+$1,$6,$7,$8,$9,0*
20,1,$1+$1,$8,$9,$2,$3,0*%
G04 Aperture macros list end*
%ADD10C,2.000000*%
%ADD11R,1.800000X1.800000*%
%ADD12C,1.800000*%
%ADD13C,8.600000*%
%ADD14C,1.752600*%
%ADD15O,2.000000X1.200000*%
%ADD16C,1.511200*%
%ADD17R,1.700000X1.700000*%
%ADD18O,1.700000X1.700000*%
%ADD19C,6.500000*%
%ADD20O,4.750000X2.250000*%
%ADD21R,1.200000X1.500000*%
%ADD22C,1.600000*%
%ADD23C,1.638200*%
%ADD24R,1.752600X1.752600*%
%ADD25RoundRect,0.250000X0.750000X0.750000X-0.750000X0.750000X-0.750000X-0.750000X0.750000X-0.750000X0*%
%ADD26R,1.600000X1.600000*%
%ADD27O,1.600000X1.600000*%
G04 APERTURE END LIST*
D10*
X140450000Y-55675000D03*
X133950000Y-55675000D03*
X140450000Y-60175000D03*
X133950000Y-60175000D03*
D11*
X133700000Y-132400000D03*
D12*
X136240000Y-132400000D03*
D11*
X143700000Y-132400000D03*
D12*
X146240000Y-132400000D03*
D11*
X153700000Y-132400000D03*
D12*
X156240000Y-132400000D03*
D13*
X150000000Y-106000000D03*
D14*
X150177500Y-83343750D03*
X150177500Y-98583750D03*
D15*
X192900000Y-55000000D03*
X190900000Y-56250000D03*
X192900000Y-57500000D03*
X190900000Y-58750000D03*
X192900000Y-60000000D03*
X190900000Y-61250000D03*
X192900000Y-62500000D03*
X190900000Y-63750000D03*
X192900000Y-65000000D03*
X190900000Y-66250000D03*
X192900000Y-67500000D03*
X190900000Y-68750000D03*
X192900000Y-70000000D03*
X107000000Y-70000000D03*
X109000000Y-68750000D03*
X107000000Y-67500000D03*
X109000000Y-66250000D03*
X107000000Y-65000000D03*
X109000000Y-63750000D03*
X107000000Y-62500000D03*
X109000000Y-61250000D03*
X107000000Y-60000000D03*
X109000000Y-58750000D03*
X107000000Y-57500000D03*
X109000000Y-56250000D03*
X107000000Y-55000000D03*
D16*
X198300000Y-103000000D03*
X194950000Y-103000000D03*
X193300000Y-104250000D03*
X198300000Y-105500000D03*
X194950000Y-105500000D03*
X193300000Y-106750000D03*
X198300000Y-108000000D03*
X194950000Y-108000000D03*
X193300000Y-109250000D03*
X198300000Y-110500000D03*
X194950000Y-110500000D03*
X193300000Y-111750000D03*
X198300000Y-113000000D03*
X194950000Y-113000000D03*
X193300000Y-114250000D03*
X198300000Y-115500000D03*
X194950000Y-115500000D03*
X193300000Y-116750000D03*
X198300000Y-118000000D03*
X194950000Y-118000000D03*
X101800000Y-118000000D03*
X105150000Y-118000000D03*
X106800000Y-116750000D03*
X101800000Y-115500000D03*
X105150000Y-115500000D03*
X106800000Y-114250000D03*
X101800000Y-113000000D03*
X105150000Y-113000000D03*
X106800000Y-111750000D03*
X101800000Y-110500000D03*
X105150000Y-110500000D03*
X106800000Y-109250000D03*
X101800000Y-108000000D03*
X105150000Y-108000000D03*
X106800000Y-106750000D03*
X101800000Y-105500000D03*
X105150000Y-105500000D03*
X106800000Y-104250000D03*
X101800000Y-103000000D03*
X105150000Y-103000000D03*
D17*
X173800000Y-129000000D03*
D18*
X176340000Y-129000000D03*
X178880000Y-129000000D03*
X181420000Y-129000000D03*
X183960000Y-129000000D03*
X186500000Y-129000000D03*
X189040000Y-129000000D03*
X191580000Y-129000000D03*
X194120000Y-129000000D03*
X196660000Y-129000000D03*
D17*
X126200000Y-129000000D03*
D18*
X123660000Y-129000000D03*
X121120000Y-129000000D03*
X118580000Y-129000000D03*
X116040000Y-129000000D03*
X113500000Y-129000000D03*
X110960000Y-129000000D03*
X108420000Y-129000000D03*
X105880000Y-129000000D03*
X103340000Y-129000000D03*
D19*
X150000000Y-74500000D03*
D20*
X109700000Y-97600000D03*
X190300000Y-97600000D03*
D21*
X154940000Y-125850000D03*
D22*
X154940000Y-128400000D03*
X154940000Y-120600000D03*
D21*
X154940000Y-123150000D03*
D23*
X178657000Y-126590000D03*
X179907000Y-124940000D03*
X181157000Y-126590000D03*
X182407000Y-124940000D03*
X183657000Y-126590000D03*
X184907000Y-124940000D03*
X186157000Y-126590000D03*
X187407000Y-124940000D03*
X188657000Y-126590000D03*
X189907000Y-124940000D03*
X191157000Y-126590000D03*
X192407000Y-124940000D03*
X193657000Y-126590000D03*
X106013000Y-126590000D03*
X107263000Y-124940000D03*
X108513000Y-126590000D03*
X109763000Y-124940000D03*
X111013000Y-126590000D03*
X112263000Y-124940000D03*
X113513000Y-126590000D03*
X114763000Y-124940000D03*
X116013000Y-126590000D03*
X117263000Y-124940000D03*
X118513000Y-126590000D03*
X119763000Y-124940000D03*
X121013000Y-126590000D03*
D24*
X147637500Y-98583750D03*
D14*
X145097500Y-98583750D03*
X142557500Y-98583750D03*
X140017500Y-98583750D03*
X137477500Y-98583750D03*
X134937500Y-98583750D03*
X132397500Y-98583750D03*
X129857500Y-98583750D03*
X127317500Y-98583750D03*
X124777500Y-98583750D03*
X122237500Y-98583750D03*
X119697500Y-98583750D03*
X119697500Y-83343750D03*
X122237500Y-83343750D03*
X124777500Y-83343750D03*
X127317500Y-83343750D03*
X129857500Y-83343750D03*
X132397500Y-83343750D03*
X134937500Y-83343750D03*
X137477500Y-83343750D03*
X140017500Y-83343750D03*
X142557500Y-83343750D03*
X145097500Y-83343750D03*
X147637500Y-83343750D03*
X124777500Y-96043750D03*
X124777500Y-93503750D03*
X124777500Y-90963750D03*
D21*
X145040000Y-125850000D03*
D22*
X145040000Y-128400000D03*
X145040000Y-120600000D03*
D21*
X145040000Y-123150000D03*
D10*
X150000000Y-60000000D03*
D25*
X167825000Y-128100000D03*
D10*
X165285000Y-128100000D03*
D25*
X172925000Y-60325000D03*
D10*
X170385000Y-60325000D03*
D21*
X135040000Y-125850000D03*
D22*
X135040000Y-128400000D03*
X135040000Y-120600000D03*
D21*
X135040000Y-123150000D03*
D26*
X135875000Y-76993750D03*
D27*
X133335000Y-76993750D03*
X130795000Y-76993750D03*
X128255000Y-76993750D03*
X125715000Y-76993750D03*
X123175000Y-76993750D03*
X120635000Y-76993750D03*
X118095000Y-76993750D03*
X118095000Y-69373750D03*
X120635000Y-69373750D03*
X123175000Y-69373750D03*
X125715000Y-69373750D03*
X128255000Y-69373750D03*
X130795000Y-69373750D03*
X133335000Y-69373750D03*
X135875000Y-69373750D03*
M02*
